<?xml version="1.0" encoding="utf-8"?>
<!-- Generator: Adobe Illustrator 23.0.1, SVG Export Plug-In . SVG Version: 6.00 Build 0)  -->
<svg version="1.1" id="Layer_1" xmlns="http://www.w3.org/2000/svg" xmlns:xlink="http://www.w3.org/1999/xlink" x="0px" y="0px"
	 viewBox="0 0 514.2 325.1" style="enable-background:new 0 0 514.2 325.1;" xml:space="preserve">
<style type="text/css">
	.st0{fill:#FFFFFF;}
	.st1{fill:#DB0000;}
	.st2{fill:#EE3E80;}
	.st3{fill:#FDB933;}
	.st4{fill:#F7941E;}
	.st5{fill:url(#SVGID_1_);}
	.st6{fill:url(#SVGID_2_);}
	.st7{fill:url(#SVGID_3_);}
</style>
<g>
	<g>
		<g>
			<polygon class="st0" points="231.5,71 227.3,61.4 216.9,59.3 221.8,69.6 			"/>
			<polygon class="st0" points="249.4,53.1 247.2,43.7 237.5,39 240.4,50 			"/>
			<polygon class="st0" points="266.8,80.9 264.8,72.7 257.5,70 259.8,78 			"/>
			<polygon class="st0" points="254.8,58.6 262.8,62.1 264.3,70.3 257,67 			"/>
			<polygon class="st0" points="253.6,54.2 251.8,45.2 260.3,49.4 261.7,58.8 			"/>
			<polygon class="st0" points="249.6,30.8 258.6,35.3 259.6,46 251.1,41.3 			"/>
			<polygon class="st0" points="264.3,48 262.2,37.8 270.7,42.2 271.7,51.9 			"/>
			<polygon class="st0" points="266.2,63.3 273,66.1 274.4,74.5 267,70.3 			"/>
			<polygon class="st0" points="278.4,77.7 285.1,81.2 285.6,87.9 279.1,86.2 			"/>
			<polygon class="st0" points="282.6,69.1 282.1,59.9 275.2,55.4 275.7,66 			"/>
			<polygon class="st0" points="282.4,57.9 275.1,53.2 274.7,44.2 281.4,49.2 			"/>
			<polygon class="st0" points="273.9,31.4 280.9,36.5 281.2,45.7 274.2,40.5 			"/>
			<polygon class="st0" points="281.4,32.8 274,27.6 274.2,16.7 281.8,23.1 			"/>
			<polygon class="st0" points="292.1,83.2 292,74.8 286.1,72.2 286.1,80.4 			"/>
			<polygon class="st0" points="292,74.8 291.4,65.5 285,61.8 285.3,71 			"/>
			<polygon class="st0" points="284.9,51.2 291.2,55.3 291.3,63.4 285.1,59.9 			"/>
			<polygon class="st0" points="291.5,52.3 285.2,48.6 285,39.3 291.5,43.2 			"/>
			<polygon class="st0" points="292.5,41.1 285.5,36.3 285.8,25.5 292.9,31.6 			"/>
			<polygon class="st0" points="299.2,86.9 293.9,84.2 293.8,77.5 299.7,81 			"/>
			<polygon class="st0" points="299.4,78.7 293.8,75.4 293.8,67.1 299.5,71.5 			"/>
			<polygon class="st0" points="300.1,59.5 294.1,55.3 294.7,46.1 300.8,51.2 			"/>
			<polygon class="st0" points="301.7,48.9 295.4,43.8 296,34.5 302.3,40.3 			"/>
			<polygon class="st0" points="303.1,37.9 296.7,31.9 298.1,21.2 304.4,27.9 			"/>
			<polygon class="st0" points="305.1,24.6 306.8,14.6 300.3,7.6 298.6,18.8 			"/>
			<polygon class="st0" points="311.5,14.6 313.7,3.7 320,12.7 317.5,22.1 			"/>
			<polygon class="st0" points="310.4,18.3 316.2,25.8 313.8,34.7 307.8,27.5 			"/>
			<polygon class="st0" points="307.2,31.1 313.1,37.9 311.2,46.3 305.1,39.5 			"/>
			<polygon class="st0" points="304.8,42 310.4,47.8 309.4,56.5 303.7,51.1 			"/>
			<polygon class="st0" points="303.4,53.8 309.1,58.9 308,66.7 302.6,62 			"/>
			<polygon class="st0" points="302.2,63.8 307.9,68.2 307.1,75.6 302,71.5 			"/>
			<polygon class="st0" points="301.7,72.9 307.1,77.1 306.8,83.4 302,80.7 			"/>
			<polygon class="st0" points="301.9,82.1 306.5,84.9 306.4,91 302.1,88.7 			"/>
			<polygon class="st0" points="313.8,81 309.5,76.7 310,69.9 314.5,74.4 			"/>
			<polygon class="st0" points="314.8,72.6 310.2,68.1 310.9,60.2 316.1,65.3 			"/>
			<polygon class="st0" points="316.6,63.2 311.6,58 313.2,51.1 318.7,56.3 			"/>
			<polygon class="st0" points="319.1,53.6 313.9,47.8 316.2,40.4 320.6,45.8 			"/>
			<polygon class="st0" points="321.2,43.9 316.5,37.9 319.6,28.9 324.3,35 			"/>
			<polygon class="st0" points="329.4,20.3 324.2,12.6 328,2.8 333.6,11.2 			"/>
			<polygon class="st0" points="337.2,11.8 342,2.4 346.3,11.7 342.2,19.7 			"/>
			<polygon class="st0" points="336.3,15.5 331.9,24.2 336.3,30.9 340.6,23 			"/>
			<polygon class="st0" points="331,27.3 335.1,34.1 331.6,42.3 327.4,35 			"/>
			<polygon class="st0" points="327.1,38.2 330.8,44.3 328.1,52 323.6,46.3 			"/>
			<polygon class="st0" points="320.3,58.7 324.3,63.8 322.7,69.9 318.6,65.4 			"/>
			<polygon class="st0" points="321.3,77.8 317,74.2 318.1,67.7 322.1,71.8 			"/>
			<polygon class="st0" points="316.5,76 320.8,79.8 319.2,85.7 315.3,81.8 			"/>
			<polygon class="st0" points="322.4,79.4 324.1,73.7 328.1,78.9 326.6,84.2 			"/>
			<polygon class="st0" points="328.4,76.2 324.5,71.3 326.5,65.5 330.4,70.5 			"/>
			<polygon class="st0" points="331,68.8 327,63.3 329.3,56.4 333.6,62.2 			"/>
			<polygon class="st0" points="334.2,60.5 330,54.1 333.4,47.3 337.3,53.2 			"/>
			<polygon class="st0" points="337.5,51.2 334.3,44 337.8,36.8 341.7,43.7 			"/>
			<polygon class="st0" points="342.3,41.4 339.3,34.8 342.8,27.2 346.3,34.8 			"/>
			<polygon class="st0" points="344,24.2 349,15.1 352.9,22.8 348,31.5 			"/>
			<polygon class="st0" points="349.9,12.7 356.2,2.7 360,12.2 354.2,20.7 			"/>
			<polygon class="st0" points="332.7,69.7 335.4,64.4 338.3,69.5 335.5,75.5 			"/>
			<polygon class="st0" points="339.2,68.1 336.2,62.5 338.8,56.1 342.2,61.5 			"/>
			<polygon class="st0" points="342.9,59.6 339.7,53.3 343.2,46.7 346.3,53 			"/>
			<polygon class="st0" points="347.6,51.2 344.5,44.8 348.4,37.6 351.5,44 			"/>
			<polygon class="st0" points="349.7,35.2 355.1,27.4 358.1,34.1 352.9,41.9 			"/>
			<polygon class="st0" points="356.2,24.9 361.2,17.1 364.4,25.4 359.6,32.7 			"/>
			<polygon class="st0" points="366.6,22.3 363.2,13.9 370.1,3.7 373.4,14.5 			"/>
			<polygon class="st0" points="339.9,81.7 337.5,77.3 340,72 342.8,76.9 			"/>
			<polygon class="st0" points="343.5,75.1 340.7,70.2 343.9,64.5 346.7,69.5 			"/>
			<polygon class="st0" points="344.6,62.6 348.5,56 351,61.2 347.7,67.9 			"/>
			<polygon class="st0" points="352.1,60.1 349.3,54.8 353.9,47.5 356.4,52.8 			"/>
			<polygon class="st0" points="357.4,51.4 362.5,44.5 359.6,38.5 354.8,45.8 			"/>
			<polygon class="st0" points="363.4,42.9 361.1,36.3 366.8,29.6 369.1,36.5 			"/>
			<polygon class="st0" points="370.6,33.3 368.6,26.6 374.3,18.6 376.7,27.6 			"/>
			<polygon class="st0" points="378.6,24.4 377,15.5 383.8,7.5 385.6,17.7 			"/>
			<polygon class="st0" points="347.1,81.6 344.6,76.3 347.8,71.3 350,76.9 			"/>
			<polygon class="st0" points="351.1,74.8 349.1,70 352.3,64.6 354.3,70.2 			"/>
			<polygon class="st0" points="360.4,60.9 358.8,55.4 363.4,48.7 365.3,55.3 			"/>
			<polygon class="st0" points="367.2,53.2 364.7,47 370.5,40.1 372.1,47.1 			"/>
			<polygon class="st0" points="371.9,38.5 373.8,45.3 379.8,38.2 378.1,31 			"/>
			<polygon class="st0" points="381.4,36.8 379.8,29 386.3,22.4 387.9,30.8 			"/>
			<polygon class="st0" points="390.2,27.9 389,19.5 396.4,12.4 397.7,21.8 			"/>
			<polygon class="st0" points="354.2,82.4 352,77.8 355.8,72.7 357.6,77.6 			"/>
			<polygon class="st0" points="358.6,75.9 356.4,71.3 360.6,65.7 362.3,71.3 			"/>
			<polygon class="st0" points="364.1,69.3 362,63.9 366.6,57.6 368.6,64.4 			"/>
			<polygon class="st0" points="369.6,63.2 367.5,57 373.4,50.4 375.2,57.1 			"/>
			<polygon class="st0" points="376.2,55.8 374.8,49.1 380.5,43 381.9,49.2 			"/>
			<polygon class="st0" points="392.3,40.4 390.8,32.8 398.8,25.6 399.5,35 			"/>
			<polygon class="st0" points="402.1,31.8 401.4,23.6 409.7,16.4 409.9,26.6 			"/>
			<polygon class="st0" points="361.3,83 359.5,78.2 363.8,73.6 365.2,79.2 			"/>
			<polygon class="st0" points="366.4,77.6 364.7,71.7 368.8,67.3 370.3,72.9 			"/>
			<polygon class="st0" points="371.8,71.2 370.4,65.7 375.9,60.4 376.6,66.8 			"/>
			<polygon class="st0" points="377.9,65 376.8,58.8 382.9,53.6 384,60.5 			"/>
			<polygon class="st0" points="385.7,58.5 384.7,52.4 391.1,46.6 391.9,53.5 			"/>
			<polygon class="st0" points="393.7,51.6 392.9,45 400.2,39.1 400.8,47.3 			"/>
			<polygon class="st0" points="402.8,45.1 402.6,36.8 410.7,30.7 411.2,40.6 			"/>
			<polygon class="st0" points="413.6,38.2 413.1,28.9 422.2,22.8 422.2,33.6 			"/>
			<polygon class="st0" points="367.9,84.8 367.1,79.5 371.3,75.1 372.1,80.9 			"/>
			<polygon class="st0" points="373.1,79.7 372.2,74.1 377.5,69.6 377.9,75.6 			"/>
			<polygon class="st0" points="379.2,74.2 378.8,68.4 384.2,63.3 385,70.3 			"/>
			<polygon class="st0" points="386.9,68.7 386,62.2 392.1,56.9 392.5,64 			"/>
			<polygon class="st0" points="394.2,62.6 393.7,55.6 401,50.5 401,58 			"/>
			<polygon class="st0" points="402.6,56.4 402.6,49.1 411.4,43.6 411.1,51.8 			"/>
			<polygon class="st0" points="413.2,50.5 413.2,42 422,36.8 422,46.5 			"/>
			<polygon class="st0" points="423.8,44.5 423.8,35.3 433.5,30.2 433.5,39.8 			"/>
			<polygon class="st0" points="373.7,81.7 374.3,87.3 379.7,83.3 378.8,78 			"/>
			<polygon class="st0" points="380.9,82.3 379.8,77.3 384.8,72.9 385.4,79.2 			"/>
			<polygon class="st0" points="387.1,77.8 386.6,71.8 392.7,67.3 393.1,74.3 			"/>
			<polygon class="st0" points="394.5,72.7 394.3,66.5 400.9,61.7 400.7,68.9 			"/>
			<polygon class="st0" points="402.7,67.7 402.5,60.4 410.5,55.9 410.3,63.4 			"/>
			<polygon class="st0" points="412.3,62.5 412.1,55.2 420.5,50.2 420,58.7 			"/>
			<polygon class="st0" points="422.2,57.1 422.5,49.3 432.3,44.4 431.9,53.6 			"/>
			<polygon class="st0" points="434.6,51.7 434.6,43 444.8,38.1 444.1,47.7 			"/>
			<polygon class="st0" points="380.4,84.8 381.2,90.2 386.3,86.7 386,81.4 			"/>
			<polygon class="st0" points="387.6,86 387.1,80.4 393,76.6 393.2,82.7 			"/>
			<polygon class="st0" points="401.6,77.9 402.5,70.8 409.7,66.8 409.5,73.9 			"/>
			<polygon class="st0" points="411.1,73.1 411.3,66.5 418.9,62.5 418.7,68.8 			"/>
			<polygon class="st0" points="421,68.9 421,61.5 429.9,57.3 429.5,64.9 			"/>
			<polygon class="st0" points="432.2,64.2 432.8,56 441.5,52.5 440.7,61 			"/>
			<polygon class="st0" points="443.6,59.8 444.3,52 455.8,47.8 452.3,57.4 			"/>
			<polygon class="st0" points="386.8,88.1 386.9,94 392.8,90.4 392.5,85.2 			"/>
			<polygon class="st0" points="393.8,89.7 393.6,84.1 399.6,80.9 399.3,87.1 			"/>
			<polygon class="st0" points="401.3,86.1 401.3,80.2 408.5,76.7 408,83.4 			"/>
			<polygon class="st0" points="409.7,82.1 410,76.4 417.7,73 417.4,80 			"/>
			<polygon class="st0" points="419,79.2 419.9,71.8 428.2,68.9 426.3,76.4 			"/>
			<polygon class="st0" points="428.6,75.2 430.7,68.2 438.7,65.2 437.4,72.5 			"/>
			<polygon class="st0" points="439.5,71.8 441.6,63.8 451.6,61.3 449.5,69 			"/>
			<polygon class="st0" points="451.8,68.7 454.9,60.3 464.4,58.2 461.1,67.4 			"/>
			<polygon class="st0" points="393.6,92.9 393.4,97.9 398.9,95 399.4,89.6 			"/>
			<polygon class="st0" points="400.3,94.6 400.9,88.9 407.1,86.1 406.4,92.2 			"/>
			<polygon class="st0" points="407.8,91.3 408.3,85.7 416.1,82.7 415.1,88.9 			"/>
			<polygon class="st0" points="416.5,88.5 417.7,82.2 425.3,79.2 423.6,86.2 			"/>
			<polygon class="st0" points="425.2,85.2 427.1,79 435.8,76.4 434,83.7 			"/>
			<polygon class="st0" points="436,82.8 438.1,75.9 447.3,73.9 444.6,81.1 			"/>
			<polygon class="st0" points="447.1,80.5 450.8,73 459.4,71.1 456.5,79 			"/>
			<polygon class="st0" points="459.4,78.3 463,70.3 473.7,69 469.8,77.5 			"/>
			<polygon class="st0" points="399,97.5 398.9,102.1 404.1,99.7 405.3,94.4 			"/>
			<polygon class="st0" points="407.2,93.8 405.8,99.4 412.7,97.1 414.1,92.1 			"/>
			<polygon class="st0" points="414.4,96.7 415.8,91.4 422.2,89.2 420.7,95.3 			"/>
			<polygon class="st0" points="422.1,95 424.4,88.6 432,87.1 429.9,93.3 			"/>
			<polygon class="st0" points="432.1,92.3 434.3,86.4 442.6,84.7 439.6,91.3 			"/>
			<polygon class="st0" points="442.5,91 445.6,83.9 454.4,83.2 451.3,89.9 			"/>
			<polygon class="st0" points="457.5,82.2 454.3,89.7 464,89.3 467,81.5 			"/>
			<polygon class="st0" points="467.1,88.5 472,81 481.3,80.1 476.7,88.2 			"/>
			<polygon class="st0" points="404.5,101.4 403.9,106.5 409.9,105.2 410.9,100.5 			"/>
			<polygon class="st0" points="411,104.7 412,100 418.9,98.2 417.3,103.2 			"/>
			<polygon class="st0" points="419.1,103.2 420.8,97.6 428.5,96 426,101.8 			"/>
			<polygon class="st0" points="427.6,101.6 430.4,95.9 438.6,94.4 435.8,100.3 			"/>
			<polygon class="st0" points="437.4,100.3 440.7,94.3 449.6,93.8 446.1,99.8 			"/>
			<polygon class="st0" points="448.5,99.5 452,93.2 461.2,92.9 457.6,99.8 			"/>
			<polygon class="st0" points="464.5,92.5 460.1,98.9 470,98.9 474.2,92.1 			"/>
			<polygon class="st0" points="472.9,99.4 478.5,92.4 488.4,92.3 483,99.7 			"/>
			<polygon class="st0" points="408.5,111.6 410.2,106.6 416.4,105.8 414.5,110.9 			"/>
			<polygon class="st0" points="415.9,110.3 418.7,105.3 424.3,104.9 422.2,110.1 			"/>
			<polygon class="st0" points="423.9,109.6 426.7,104.5 434.1,104 431.3,109.6 			"/>
			<polygon class="st0" points="433.1,109.5 436.1,103.7 444.2,103.3 440.7,109.2 			"/>
			<polygon class="st0" points="442.6,108.7 446.4,102.9 455.3,102.7 451.7,108.8 			"/>
			<polygon class="st0" points="453.7,108.7 457.7,102.9 467.1,102.7 463.1,109.1 			"/>
			<polygon class="st0" points="465.2,109.3 469.9,102.8 480.6,103.2 475.3,110.1 			"/>
			<polygon class="st0" points="478,110.2 483.7,103.7 494.7,103.8 488,111.6 			"/>
			<polygon class="st0" points="412.1,117.9 414.5,112.5 420.8,112.5 418.1,117.7 			"/>
			<polygon class="st0" points="419.9,117 422.3,112 429.8,111.9 426.6,117.1 			"/>
			<polygon class="st0" points="428.3,117.1 431.5,112.1 438.6,111.9 435.8,117.4 			"/>
			<polygon class="st0" points="437.4,117.2 441.1,111.3 449.9,111.6 445.4,117.2 			"/>
			<polygon class="st0" points="447.3,117.2 451.5,111.9 460.5,112.2 455.9,117.8 			"/>
			<polygon class="st0" points="458,118.1 462.3,112.7 473,112.9 467.6,119.1 			"/>
			<polygon class="st0" points="470,119.7 475.3,114.2 485.8,114.6 478.6,121.6 			"/>
			<polygon class="st0" points="482.5,122.2 489.3,115.6 499,117 492.2,124.5 			"/>
			<polygon class="st0" points="415.6,123.7 419.2,118.7 425.5,118.7 422,123.7 			"/>
			<polygon class="st0" points="423.8,123.7 427,118.9 434.1,119 430.3,123.9 			"/>
			<polygon class="st0" points="432,123.9 435.3,119.5 443.6,119.5 439.3,124.6 			"/>
			<polygon class="st0" points="441.1,125 445.2,120.3 453.8,120.6 449.6,125.7 			"/>
			<polygon class="st0" points="450.9,126.1 455.5,121.2 464.3,122.5 459.7,127.5 			"/>
			<polygon class="st0" points="461.7,128.3 467.3,123.3 476.4,125 470.2,130.3 			"/>
			<polygon class="st0" points="473.4,130.4 479.2,125.3 489,127.2 482.2,133 			"/>
			<polygon class="st0" points="485.8,134.1 493,128.6 502.5,130.9 495.4,137.5 			"/>
			<polygon class="st0" points="419.9,129.4 422.3,125.6 428.4,125.9 425.5,129.9 			"/>
			<polygon class="st0" points="426.6,130.5 430.2,126.3 437.3,126.7 433.1,131.2 			"/>
			<polygon class="st0" points="435.2,132 439.4,127.1 446.7,128 442,132.9 			"/>
			<polygon class="st0" points="444.3,133.5 448.4,128.8 456.5,129.9 452.2,135.3 			"/>
			<polygon class="st0" points="454.1,135.7 459,130.7 467.6,132.5 462,137.5 			"/>
			<polygon class="st0" points="464.4,138.1 470.3,133.1 479,136.3 472.7,141.4 			"/>
			<polygon class="st0" points="475.8,141.9 482.4,136.9 491.3,140.1 484.1,145.7 			"/>
			<polygon class="st0" points="487.8,146.3 495.5,141.5 505.3,144.5 497.3,149.9 			"/>
			<polygon class="st0" points="422,136.6 425.7,132.2 431.4,133.1 428,137.4 			"/>
			<polygon class="st0" points="429.8,137.6 433.3,133.5 440.5,134.8 435.4,138.9 			"/>
			<polygon class="st0" points="438,139.4 442.6,135.3 449.7,137.2 444.6,141.2 			"/>
			<polygon class="st0" points="446.4,141.8 451.5,137.6 459.2,139.9 453.8,144.4 			"/>
			<polygon class="st0" points="456.2,144.6 462,140.6 470,143.6 463.8,148 			"/>
			<polygon class="st0" points="466.2,148.6 472.9,144.6 481.3,147.9 474.1,152 			"/>
			<polygon class="st0" points="477.2,153 484.7,148.8 493.5,152.7 485.8,157.1 			"/>
			<polygon class="st0" points="489.4,159 498,154.2 507.3,159 498,163.4 			"/>
			<polygon class="st0" points="424.1,142.6 427.9,139 433.4,140.5 429.9,144 			"/>
			<polygon class="st0" points="431.3,144.8 435.6,141.1 441.7,143.1 437.5,147.4 			"/>
			<polygon class="st0" points="439.5,147.9 444.7,143.6 451.5,146.2 446.4,150.4 			"/>
			<polygon class="st0" points="447.8,150.7 453.7,146.7 460.8,149.9 455.3,154.1 			"/>
			<polygon class="st0" points="457.8,154.7 463.2,150.2 471.4,154.4 465.1,158.3 			"/>
			<polygon class="st0" points="467.5,159.2 474.5,155.4 482.3,159 475.1,163.2 			"/>
			<polygon class="st0" points="478.3,164.9 485.3,161.1 494.2,165.8 486.8,169.3 			"/>
			<polygon class="st0" points="489.6,171.1 497.7,167.8 507,172.6 498.1,176.8 			"/>
			<polygon class="st0" points="425.9,149.8 430.7,146.7 435.2,148.6 431.3,151.8 			"/>
			<polygon class="st0" points="432.7,152.4 437.4,148.9 443.6,151.4 438,155.1 			"/>
			<polygon class="st0" points="440.5,156.1 445.8,152.7 452.5,155.4 446.7,158.7 			"/>
			<polygon class="st0" points="448.7,159.8 454.9,156.5 461.6,159.8 455.9,163.3 			"/>
			<polygon class="st0" points="457.9,164.4 464.6,161 471.3,165 465.1,168.5 			"/>
			<polygon class="st0" points="467.7,169.8 474.3,166.3 481.8,171.2 475.2,174.6 			"/>
			<polygon class="st0" points="488.8,183.9 497,180.7 505.3,187.5 496.3,190 			"/>
			<polygon class="st0" points="427,156.6 431.4,154.3 436.5,156.7 432.1,159.2 			"/>
			<polygon class="st0" points="433.9,159.9 438.5,157.5 444.1,160.5 438.9,163 			"/>
			<polygon class="st0" points="441.5,164.3 446.6,161.2 453.6,164.9 446.8,167.7 			"/>
			<polygon class="st0" points="448.7,169.1 454.7,166 461.5,170.4 455.7,173.2 			"/>
			<polygon class="st0" points="457.8,174.4 463.8,171.3 471.4,176.7 464.6,179.2 			"/>
			<polygon class="st0" points="467,180.6 473.2,178 481.1,183.4 473.8,186 			"/>
			<polygon class="st0" points="476.9,187.8 484.2,185.3 491.8,192 484.1,194.3 			"/>
			<polygon class="st0" points="486.8,196 495.5,194.2 504.3,201 493.9,202.9 			"/>
			<polygon class="st0" points="426.9,163.7 432.3,162.1 436.6,164.6 431.8,166.5 			"/>
			<polygon class="st0" points="433.6,168 439,165.5 444.5,169.1 438.9,171.5 			"/>
			<polygon class="st0" points="440.2,172.6 446.2,170.1 452.8,174.3 446.4,176.7 			"/>
			<polygon class="st0" points="447.9,178 454,175.7 461,180.6 454.2,182.6 			"/>
			<polygon class="st0" points="455.9,183.9 462.4,181.8 469.9,187.3 463,189.2 			"/>
			<polygon class="st0" points="465.6,191.1 471.8,189.1 479.4,195.1 472.4,197.2 			"/>
			<polygon class="st0" points="473.4,198.8 481.6,197.2 489.8,204 480.5,206.1 			"/>
			<polygon class="st0" points="483.5,208.8 492.4,207.4 500.3,214.5 490,216.1 			"/>
			<polygon class="st0" points="426.8,171 432,169.5 436.6,172.9 431.6,174.3 			"/>
			<polygon class="st0" points="433,175.2 438.4,173.5 443.6,177.6 438.1,179.1 			"/>
			<polygon class="st0" points="439.5,181.1 446,178.8 451.1,183.6 444.9,185.1 			"/>
			<polygon class="st0" points="446.5,186.2 453.2,185 459.6,190.6 452.4,191.8 			"/>
			<polygon class="st0" points="453.8,193.4 461.8,192.3 467.7,198.4 459.8,199.3 			"/>
			<polygon class="st0" points="462.3,201.4 469.7,200.2 476.3,207.2 468.7,207.9 			"/>
			<polygon class="st0" points="470.5,210.3 479.2,209.6 485.6,216.9 476.7,217.5 			"/>
			<polygon class="st0" points="431.3,183 437.4,181.8 441.9,185.9 435.9,187.1 			"/>
			<polygon class="st0" points="438.3,188.7 443.9,187.9 449.6,192.6 442.5,193.8 			"/>
			<polygon class="st0" points="444.3,195 451.4,194.5 456.5,200 449.7,201.2 			"/>
			<polygon class="st0" points="451.1,202.4 458.6,202 464,208.6 456.2,209.1 			"/>
			<polygon class="st0" points="458.7,211.1 467.1,211 472.3,218.2 463.7,218.4 			"/>
			<polygon class="st0" points="465.7,220.5 474.4,220.5 480.5,228.7 471.1,228.7 			"/>
			<polygon class="st0" points="474.2,231.9 483.7,231.9 489.8,241.2 479.8,241.2 			"/>
			<polygon class="st0" points="468.5,243.4 477.2,243.4 482.8,254.1 472.7,252.4 			"/>
			<polygon class="st0" points="460.4,231.8 469.9,231.8 474.8,240.3 466.7,240.3 			"/>
			<polygon class="st0" points="459.1,229 453.9,220.6 462.3,220.6 467.9,228.9 			"/>
			<polygon class="st0" points="424.3,184.2 429.7,184.2 433.5,188 428.1,188 			"/>
			<polygon class="st0" points="430,190.3 435.8,190.3 439.7,194.3 433.4,194.9 			"/>
			<polygon class="st0" points="435.8,197 441.3,196.4 446.5,201.5 439.4,202.1 			"/>
			<polygon class="st0" points="441.3,204.1 447.8,203.7 453,210.1 446,210.3 			"/>
			<polygon class="st0" points="426.7,197.4 433.5,197.4 437,202.8 430.6,202.8 			"/>
			<polygon class="st0" points="432.4,204.5 438.7,204.5 442.6,209.8 436.3,209.8 			"/>
			<polygon class="st0" points="437.1,211.7 444.1,211.7 449,218.9 442.2,218.9 			"/>
			<polygon class="st0" points="443.6,221 451.1,221 455.1,228.7 448.3,228.7 			"/>
			<polygon class="st0" points="449.2,230.8 456.6,230.8 461.6,239.8 454.1,239.8 			"/>
			<polygon class="st0" points="454.6,241.5 462.6,241.5 467.8,251.8 459.5,251.8 			"/>
			<polygon class="st0" points="419.4,198.1 424.6,198.1 428.2,203.1 422.3,203.1 			"/>
			<polygon class="st0" points="423.7,204.5 429.5,204.5 433.8,210 426.9,210 			"/>
			<polygon class="st0" points="427.9,212.1 434.5,212.1 439,219.2 432.7,219.2 			"/>
			<polygon class="st0" points="433.2,220.2 440.1,220.2 444.1,228.4 437.4,228.4 			"/>
			<polygon class="st0" points="438.1,229.4 444.6,229.4 449.2,237.8 442.2,237.8 			"/>
			<polygon class="st0" points="442.7,239.9 451,239.9 454.8,249.2 447.2,249.2 			"/>
			<polygon class="st0" points="447.9,251.5 456.2,251.5 460,262.2 452.1,262.2 			"/>
			<polygon class="st0" points="453,264.3 462.2,265.8 465.4,276.6 456.5,273.5 			"/>
			<polygon class="st0" points="419.9,211.1 425.4,211.5 428.6,217.5 422.9,217.5 			"/>
			<polygon class="st0" points="423.6,218.9 429.9,219.2 433.2,226.5 426.8,226.1 			"/>
			<polygon class="st0" points="427.6,227.7 433.9,228.3 437.7,236.7 431.4,235.6 			"/>
			<polygon class="st0" points="436.2,248.5 443.2,248.9 447.1,259.6 438.7,257 			"/>
			<polygon class="st0" points="439.8,259.4 448.1,262.7 450.9,272.2 442.6,269.2 			"/>
			<polygon class="st0" points="412.4,210.1 417.7,211 419.8,216.4 414.9,216 			"/>
			<polygon class="st0" points="415.7,218.1 421.6,218.7 423.6,225.1 418,223.7 			"/>
			<polygon class="st0" points="418.8,225.9 425.3,226.9 427.4,234 421.6,232.6 			"/>
			<polygon class="st0" points="422.5,234.5 428.9,235.9 431.3,243.8 424.6,242.6 			"/>
			<polygon class="st0" points="425.5,244.8 432.8,246.4 434.8,255.6 427.8,253.6 			"/>
			<polygon class="st0" points="431.3,267.8 439.8,270.7 441.5,281.2 433,277 			"/>
			<polygon class="st0" points="434.5,281.9 442.9,286.2 444.8,296.7 435.5,291.3 			"/>
			<polygon class="st0" points="403,221.5 408.3,223.3 409.4,228.7 405.1,227.5 			"/>
			<polygon class="st0" points="410,224 416.4,225 418.5,232.4 412.5,229.6 			"/>
			<polygon class="st0" points="405.7,229.4 410,230.7 412.5,238.1 407.2,235.9 			"/>
			<polygon class="st0" points="407.5,238 413.4,240.1 414.3,247.8 408.5,244.8 			"/>
			<polygon class="st0" points="410.4,257.7 417.3,261.3 417.4,269.9 410.8,266.6 			"/>
			<polygon class="st0" points="415.7,241.3 423,244 424.6,251.8 417.4,248.6 			"/>
			<polygon class="st0" points="417.7,251.1 425.7,254.9 426.5,262.9 420.1,260.1 			"/>
			<polygon class="st0" points="420.6,262.6 427.9,265.8 428.9,276.2 421.1,271.7 			"/>
			<polygon class="st0" points="399.9,235 404.4,236.8 405.5,243.4 399.8,240.6 			"/>
			<polygon class="st0" points="400.5,243 405.9,246.1 406.5,253.1 400.8,249.7 			"/>
			<polygon class="st0" points="401.3,252.4 406.9,256.2 407.1,264.3 401.6,260.5 			"/>
			<polygon class="st0" points="401.9,274.5 408.3,279.2 408.3,288.8 402,284 			"/>
			<polygon class="st0" points="411.8,269.7 418.3,272.9 418.3,281.6 412.1,278.7 			"/>
			<polygon class="st0" points="412.9,295.5 420.2,301.3 420.2,312.3 412.8,306.4 			"/>
			<polygon class="st0" points="392.2,279.4 397.6,283.4 397.6,294.2 391.8,289.3 			"/>
			<polygon class="st0" points="388.5,285.8 382.6,280.6 383.3,271.3 388.6,276 			"/>
			<polygon class="st0" points="386.1,234.3 386.1,241.5 390.1,243.6 390.1,237.3 			"/>
			<polygon class="st0" points="392.9,238.9 392.9,244.7 397.7,248.3 397.7,241.6 			"/>
			<polygon class="st0" points="385.9,242.9 390.4,245.9 390.4,253.6 385.7,249.6 			"/>
			<polygon class="st0" points="385.2,251.3 390.3,255 390.3,262.7 385.1,258.7 			"/>
			<polygon class="st0" points="392.8,257.4 398.7,261.3 398.7,269.2 392.7,265.5 			"/>
			<polygon class="st0" points="378.2,245.5 383.1,249 383.1,256.3 378,252.2 			"/>
			<polygon class="st0" points="363.3,250.4 367.5,254.8 366.8,262.2 362,256.9 			"/>
			<polygon class="st0" points="369.3,257.4 368.2,264.8 371.8,269.4 373.1,261.5 			"/>
			<polygon class="st0" points="379.2,295.6 385.1,302.3 383,312.1 377.3,305.1 			"/>
			<polygon class="st0" points="361.6,284.3 364.3,277 368.3,282.5 365.9,291.8 			"/>
			<polygon class="st0" points="358.7,281.5 361.7,273.5 358,267.3 355.2,275.6 			"/>
			<polygon class="st0" points="353.1,272.9 349.7,266.4 352.9,260.1 356.4,265.2 			"/>
			<polygon class="st0" points="339.1,265.4 335.2,272.2 337.4,278.3 341.6,271.4 			"/>
			<polygon class="st0" points="338.9,282.5 343.8,274.6 347,280.5 342.1,288.3 			"/>
			<polygon class="st0" points="343.1,294.3 347.2,301.8 342.4,310.3 338.5,302.6 			"/>
			<polygon class="st0" points="324.1,304.7 327.7,313.4 321.2,321.4 318.1,313.1 			"/>
			<polygon class="st0" points="320.9,285.8 318.5,279.7 324.4,272.9 325.9,279.9 			"/>
			<polygon class="st0" points="298.1,287.2 298.1,296.3 290.7,302.3 290.7,292.5 			"/>
			<polygon class="st0" points="276.2,290.7 276.2,300.5 267.2,306.2 267.2,295.6 			"/>
		</g>
		<g>
			<path class="st1" d="M416.9,161.1c-0.1-13.8-9.4-23.5-22.8-23.5c0,0-0.1,0-0.2,0c-2.5,0-4.8,0.4-7,1.1c-2-1-4.2-1.3-6.4-0.8
				l-7.7,1.6c0,0-0.1,0-0.1,0c-3.7,0.8-6.6,2.9-8.4,5.8c-5.2-4.6-12.2-7.4-20-7.4c0,0-0.2,0-0.2,0c-8.9,0.1-16.8,3.8-22.2,9.7
				c-4-5.9-10.6-9.4-18.7-9.4c0,0-0.1,0-0.2,0c-0.6,0-1.3,0-1.9,0.1l0-4.9c0-2.9-1.4-5.7-3.7-7.5c-2.3-1.8-5.3-2.5-8.2-1.8l-7.8,1.8
				c-0.1,0-0.1,0-0.2,0c-4.7,1.2-8.2,4.5-9.5,8.8c-0.5-2.4-1.8-4.5-3.7-6c-2.5-1.8-5.6-2.4-8.6-1.5l-7.6,2.3
				c-5.6,1.6-9.2,6.1-9.5,11.5c-0.8,0.5-1.5,1.1-2.2,1.8c-4.2-2.7-9.7-4.1-16.1-4.1l-0.3,0c-5.6,0-10.8,1-15.9,3
				c-0.4,0.1-0.7,0.3-1,0.5c-1.7-1.4-3.9-2.3-6.2-2.3c0,0,0,0-0.1,0l-0.6,0l0-3.1c0-3.1-1.5-5.9-3.9-7.7c-2.5-1.8-5.6-2.4-8.6-1.5
				l-7.6,2.3c-5.6,1.6-9.2,6.1-9.5,11.5c-0.8,0.5-1.5,1.1-2.2,1.8c-4.2-2.7-9.7-4.1-16.1-4.1l-0.3,0c-5.6,0-10.8,1-15.9,3
				c-1,0.4-1.9,0.9-2.7,1.4c-6.1-9.8-17.3-15.8-31.3-15.8l-18.2,0.1c-2.6,0-5,1-6.8,2.9c-1.8,1.8-2.8,4.3-2.8,6.9l0.3,49
				c0,5.3,4.4,9.6,9.7,9.6c0,0,0,0,0.1,0l17.7-0.1c10.2-0.1,19-3.3,25.6-9.3c3.8,6.1,10.8,9.9,19.4,9.9c0,0,0.1,0,0.2,0
				c3,0,5.9-0.5,8.5-1.4c1,0.3,2.1,0.5,3.1,0.5l10.3-0.1c2.6,0,5-1,6.8-2.9c0.4-0.4,0.8-0.9,1.2-1.5c3.6,3.3,8.6,5,14.7,5l0.2,0
				c3.4,0,6.3-0.5,9-1.5c1.8-0.6,3.3-1.5,4.5-2.4c3.7,2.4,8.2,3.8,13.3,3.8c0,0,0.1,0,0.2,0c3,0,5.9-0.5,8.5-1.4
				c1,0.3,2.1,0.5,3.1,0.5l10.3-0.1c2.6,0,5-1,6.8-2.9c0.4-0.5,0.8-0.9,1.2-1.5c3.6,3.3,8.6,5,14.7,5l0.2,0c3.4,0,6.3-0.5,9-1.5
				c1-0.3,1.9-0.8,2.7-1.2c1.6,1.1,3.6,1.8,5.6,1.8c0,0,0,0,0.1,0l10.4-0.1c2.8,0,5.3-1.2,7.1-3.1c1.8,1.9,4.3,3,7,3c0,0,0,0,0.1,0
				l10.5-0.1c2.6,0,5-1,6.8-2.9c0.8-0.8,1.5-1.8,1.9-2.9c5.1,4,11.6,6.4,18.8,6.4h0.2c7.2,0,13.8-2.4,19.1-6.7
				c0.5,1.1,1.2,2.1,2,2.9c1.8,1.8,4.3,2.8,6.8,2.8c0,0,0,0,0.1,0l10.4-0.1c2.8,0,5.3-1.2,7.1-3.1c1.8,1.9,4.3,3,7,3c0,0,0,0,0.1,0
				l10.5-0.1c2.6,0,5-1,6.8-2.9c1.8-1.8,2.8-4.3,2.8-6.9L416.9,161.1z M344.4,166.7c0,0.2,0,0.4-0.1,0.5c-0.1-0.1-0.1-0.3-0.1-0.6
				c0-0.2,0-0.4,0.1-0.5C344.4,166.3,344.4,166.4,344.4,166.7z M344.2,157.2v8.8c0,0,0,0,0,0L344.2,157.2z M224.2,174.3
				C224.2,174.3,224.2,174.3,224.2,174.3l0-1.5c0,0,0,0,0,0V174.3z M152.3,174.7C152.3,174.7,152.3,174.7,152.3,174.7l0-1.5
				c0,0,0,0,0,0V174.7z M108.4,161.8c0,1.9-0.4,4.4-3.7,5.2l-0.1-10.5C107.2,157,108.4,158.8,108.4,161.8z"/>
			<g>
				<path class="st0" d="M102.4,136.2l-19.2,0.1l0.3,51.2l18.8-0.1c8.3,0,15.3-2.6,20.3-7.4c4.8-4.6,7.4-11.2,7.4-18.5
					C129.9,146.3,118.8,136.2,102.4,136.2z M102.5,146.6v1.1c8.7,0,14.4,5.5,14.5,14.1c0,4.1-1.3,7.6-3.9,10.1
					c-2.6,2.5-6.2,3.9-10.6,3.9l-6.4,0L96,147.7l6.4,0L102.5,146.6L102.5,146.6z"/>
				<path class="st0" d="M152.5,147.6h-0.2c-4.6,0-8.7,0.8-12.8,2.4c-2,0.8-2.6,1.5-2.5,3.6l0,7.7l1.5-0.6c5-1.9,8.4-2.7,12.4-2.7
					c4.4,0,6.7,1.8,6.9,5.4c-2.4-0.7-5.4-1.2-8.1-1.2h0c-10.3,0.1-16.4,5-16.4,13.3c0,7.4,5.6,12.4,13.9,12.4h0.1
					c4.2,0,7.7-1.3,10.5-3.7l0,2.8l12.5-0.1l-0.1-22.7C170.3,153.3,164.1,147.6,152.5,147.6z M152.2,170.2l0.1-1.1h0L152.2,170.2
					c1.9,0,4.2,0.3,5.9,0.8l0,1.7c0,3.7-2.9,6.2-7.3,6.2c-2.4,0-5.1-1.1-5.1-4.1C145.7,171.9,148.1,170.2,152.2,170.2z M147.3,186.8
					L147.3,186.8L147.3,186.8L147.3,186.8z"/>
				<path class="st0" d="M201.1,155.6l1.2-7.2l-10.5,0.1l-0.1-13.1l-9,2.7c-2.2,0.6-3.4,2.1-3.4,4l0,6.4l-4.7,0l0.1,10.4l4.7,0
					l0.1,15.2c0.1,9.2,4.1,13.5,12.7,13.5h0.2c2.4,0,4.4-0.3,6.2-1c2.4-0.8,2.8-1.4,2.8-3.8l0-7.4l-1.4,0.5
					c-1.7,0.6-3.2,0.9-4.5,0.9c-2.3,0-3.3-1-3.3-3.3l-0.1-14.6l5.2,0C198.8,158.8,200.6,158.4,201.1,155.6z"/>
				<path class="st0" d="M224.4,147.2h-0.2c-4.6,0-8.7,0.8-12.8,2.4c-2,0.8-2.6,1.5-2.5,3.6l0,7.7l1.5-0.6c5-1.9,8.4-2.7,12.4-2.7
					c4.4,0,6.7,1.8,6.9,5.4c-2.4-0.7-5.4-1.2-8.1-1.2h0c-4.9,0-8.9,1.2-11.8,3.3c-3.1,2.3-4.7,5.8-4.6,10c0,7.4,5.6,12.4,13.9,12.4
					h0.1c4.2,0,7.7-1.3,10.5-3.7l0,2.8l12.5-0.1l-0.1-22.7C242.2,152.9,236,147.2,224.4,147.2z M224.1,169.8l0.1-1.1h0L224.1,169.8
					c1.9,0,4.2,0.3,5.9,0.8l0,1.7c0,3.7-2.9,6.2-7.3,6.2c-2.4,0-5.1-1.1-5.1-4.1C217.6,171.5,220,169.8,224.1,169.8z M219.2,186.4
					L219.2,186.4L219.2,186.4L219.2,186.4z"/>
				<path class="st0" d="M273,155.2l1.2-7.2l-10.5,0.1l-0.1-13.1l-9,2.7c-2.2,0.6-3.4,2.1-3.4,4l0,6.4l-4.7,0l0.1,10.4l4.7,0
					l0.1,15.2c0.1,9.2,4.1,13.5,12.7,13.5h0.2c2.4,0,4.4-0.3,6.2-1c2.4-0.8,2.8-1.4,2.8-3.8l0-7.4l-1.4,0.5
					c-1.7,0.6-3.2,0.9-4.5,0.9c-2.3,0-3.3-1-3.3-3.3l-0.1-14.6l5.2,0C270.7,158.4,272.5,158,273,155.2z"/>
				<path class="st0" d="M303.3,146.7c-4.9,0-8.3,2-10.5,4.3l-0.1-19l-9.1,2.1c-2.2,0.5-3.4,2-3.4,4l0.3,48.1l12.5-0.1l-0.1-20.3
					c0-4.4,2.7-7.7,6.3-7.8c5.1,0,5.7,4.8,5.7,6.9l0.1,21.2l12.7-0.1l-0.1-24.4C317.5,152.4,312,146.7,303.3,146.7z"/>
				<path class="st0" d="M344.2,146.5c-11.8,0.1-21,9-20.9,20.3c0.1,11.4,9,19.9,20.9,19.9h0.1c5.8,0,11.2-2.2,15.1-6
					c3.9-3.8,6-8.8,5.9-14.2C365.3,155.1,356.3,146.5,344.2,146.5z M338,160.2c1.6-1.8,3.7-2.7,6.2-2.7l0.1-1.1l0,0v1.1
					c4.9,0,8.8,4,8.8,9.2c0,2.5-0.8,4.8-2.4,6.5c-1.6,1.7-3.8,2.6-6.3,2.7c-4.9,0-8.7-3.9-8.7-9.1
					C335.6,164.2,336.5,161.9,338,160.2z M344.2,185.7L344.2,185.7L344.2,185.7L344.2,185.7z"/>
				<path class="st0" d="M408.3,161.1c-0.1-9.2-5.5-14.9-14.3-14.9c-4.2,0-7.7,1.5-10.4,4.3l0-4.6l-9,1.9c-2.2,0.5-3.6,2-3.6,4
					l0.2,33.9l12.5-0.1l-0.1-20.3c0-2.2,0.6-4.2,1.8-5.6c1.1-1.4,2.7-2.2,4.5-2.2c5.1,0,5.7,4.8,5.7,6.9l0.1,21.2l12.7-0.1
					L408.3,161.1z"/>
			</g>
		</g>
		<g>
			<g>
				<g>
					<g>
						<g>
							<g>
								<polygon class="st0" points="35.4,42.6 35.4,77 60.9,91.7 34,107.2 63.7,124.4 92.1,108.1 92.1,75.4 								"/>
							</g>
						</g>
					</g>
				</g>
				<g>
					<g>
						<polygon class="st2" points="36.9,107.3 63.8,122.8 63.8,91.7 						"/>
						<polygon class="st3" points="36.9,45.2 36.9,76.2 63.8,60.7 						"/>
						<polygon class="st4" points="63.8,60.7 63.8,60.7 36.9,76.2 63.8,91.7 						"/>
						<linearGradient id="SVGID_1_" gradientUnits="userSpaceOnUse" x1="63.7658" y1="91.7321" x2="90.6583" y2="91.7321">
							<stop  offset="0" style="stop-color:#231E67"/>
							<stop  offset="8.938972e-02" style="stop-color:#3F1E6B"/>
							<stop  offset="0.2" style="stop-color:#5E1F70"/>
							<stop  offset="1" style="stop-color:#B63F80"/>
						</linearGradient>
						<polygon class="st5" points="90.7,107.3 90.7,76.2 63.8,91.7 						"/>
						<linearGradient id="SVGID_2_" gradientUnits="userSpaceOnUse" x1="77.2107" y1="60.6786" x2="77.2107" y2="91.7307">
							<stop  offset="0.1" style="stop-color:#EF4E23"/>
							<stop  offset="0.122" style="stop-color:#EF5023"/>
							<stop  offset="0.7081" style="stop-color:#F4801F"/>
							<stop  offset="1" style="stop-color:#F6921E"/>
						</linearGradient>
						<polygon class="st6" points="63.8,91.7 63.8,91.7 90.7,76.2 63.8,60.7 						"/>
						<linearGradient id="SVGID_3_" gradientUnits="userSpaceOnUse" x1="63.7658" y1="107.2554" x2="90.6583" y2="107.2554">
							<stop  offset="5.000000e-02" style="stop-color:#AE2A47"/>
							<stop  offset="0.1784" style="stop-color:#BB254B"/>
							<stop  offset="0.4985" style="stop-color:#D61C53"/>
							<stop  offset="0.7827" style="stop-color:#E61658"/>
							<stop  offset="1" style="stop-color:#EC145A"/>
						</linearGradient>
						<polygon class="st7" points="90.7,107.3 90.7,107.3 63.8,91.7 63.8,122.8 						"/>
					</g>
				</g>
			</g>
			<g>
				<path class="st0" d="M118.7,105.9c-1.3,0-2.4,0.9-3.6,2.8c-1,1.7-1.5,3.2-1.5,4.5c0,1.3,0.4,2.5,1.3,3.3
					c0.8,0.9,1.9,1.3,3.3,1.3c1.3,0,2.4-0.8,3.3-2.6c0.8-1.5,1.2-2.9,1.2-4.2c0-1.3-0.4-2.4-1-3.4
					C120.9,106.5,119.9,105.9,118.7,105.9 M201.3,67.6L201.3,67.6h-37.5h-1.5h-4.7c-1.7-0.8-4.3-3-4.3-5.6c0-4.3,4.8-6.9,8.1-8.6
					c4.3-2.2,8.9-3.6,13.7-4.3c0.9-0.1,1.8-0.2,2.7-0.2c0.8,0,1.7,0,2.5,0.1c1.5,0.1,3.1,0.5,3.9,2c0.8,1.4,0.4,3.5-0.8,4.5
					c-0.1,0.1-0.2,0.2-0.3,0.3c-0.5,0.5-0.6,1.3,0.1,1.9l3.9,3.1c0.9,0.8,1.7,0.1,2.1-0.2c1.6-1.1,2.6-3.7,2.7-4.8
					c0.3-3.5-1.3-7.6-4.8-9.7c-5.6-3.3-14.4-2.2-20.3-0.9c-7.2,1.5-21.9,6.1-21.9,15.6c0,2.4,1.1,4.5,3.3,6.3l0.3,0.3h-5.4h-0.9h-32
					h-2.9c-0.5,0-1.3,0.3-1.9,0.9c-1.4,1.4-2.2,3.9-2.4,4.5h21.8h7.1v2.2c-8.3,1.4-15.8,4.9-22.3,10.2c-2.5,2-3.7,3.6-3.7,4.9
					c0,1.6,2.6,4.2,7.8,7.9c3.5,2.5,6.8,4.6,9.9,6.3c6.7,3.7,11.8,5.7,15.2,5.9V73h1.5h0.7h9.9v32.1c0,0.7,0.4,1.5,1.1,2.3
					c1.7,1.8,4.8,2.7,5.5,2.9V73h2.7h1.5h28.3v2.2c-8.3,1.4-15.7,4.9-22.4,10.2c-2.5,2.1-3.8,3.7-3.8,4.9c0,0.6,0.6,1.6,1.9,3
					c3.2,3.2,7.1,6.2,11.8,9c8.7,5.2,15.1,7.9,19.2,8.1V73h0h0.1c0.6,0,1.3-0.3,1.9-0.9C200.4,70.7,201.2,68.2,201.3,67.6
					 M131.4,101.6c-3.1-1.3-6.7-3.8-10.9-7.3c-1.6-1.4-2.6-2.3-3-2.9c1.7-3,6.4-5.4,14-7.1V101.6z M188.6,101.6
					c-3.1-1.3-6.7-3.8-10.9-7.3c-1.6-1.4-2.6-2.3-3-2.9c0.3-0.3,0.5-0.6,0.7-0.8c3.1-3,7.5-5.1,13.2-6.4V101.6z"/>
			</g>
		</g>
	</g>
</g>
</svg>
