<?xml version="1.0" encoding="utf-8"?>
<!-- Generator: Adobe Illustrator 23.0.1, SVG Export Plug-In . SVG Version: 6.00 Build 0)  -->
<svg version="1.1" id="Layer_1" xmlns="http://www.w3.org/2000/svg" xmlns:xlink="http://www.w3.org/1999/xlink" x="0px" y="0px"
	 viewBox="0 0 488 325.1" style="enable-background:new 0 0 488 325.1;" xml:space="preserve">
<style type="text/css">
	.st0{fill:#FFFFFF;}
	.st1{fill:#DB0000;}
	.st2{fill:#EE3E80;}
	.st3{fill:#FDB933;}
	.st4{fill:#F7941E;}
	.st5{fill:url(#SVGID_1_);}
	.st6{fill:url(#SVGID_2_);}
	.st7{fill:url(#SVGID_3_);}
</style>
<g>
	<g>
		<g>
			<polygon class="st0" points="205.3,71 201.1,61.4 190.7,59.3 195.6,69.6 			"/>
			<polygon class="st0" points="223.2,53.1 221.1,43.7 211.4,39 214.2,50 			"/>
			<polygon class="st0" points="240.7,80.9 238.7,72.7 231.3,70 233.6,78 			"/>
			<polygon class="st0" points="228.6,58.6 236.6,62.1 238.2,70.3 230.8,67 			"/>
			<polygon class="st0" points="227.4,54.2 225.6,45.2 234.1,49.4 235.5,58.8 			"/>
			<polygon class="st0" points="223.4,30.8 232.5,35.3 233.5,46 224.9,41.3 			"/>
			<polygon class="st0" points="238.2,48 236,37.8 244.5,42.2 245.5,51.9 			"/>
			<polygon class="st0" points="240,63.3 246.9,66.1 248.2,74.5 240.8,70.3 			"/>
			<polygon class="st0" points="252.2,77.7 258.9,81.2 259.4,87.9 252.9,86.2 			"/>
			<polygon class="st0" points="256.4,69.1 255.9,59.9 249,55.4 249.5,66 			"/>
			<polygon class="st0" points="256.2,57.9 248.9,53.2 248.5,44.2 255.2,49.2 			"/>
			<polygon class="st0" points="247.7,31.4 254.7,36.5 255.1,45.7 248,40.5 			"/>
			<polygon class="st0" points="255.2,32.8 247.9,27.6 248,16.7 255.6,23.1 			"/>
			<polygon class="st0" points="266,83.2 265.8,74.8 259.9,72.2 259.9,80.4 			"/>
			<polygon class="st0" points="265.8,74.8 265.3,65.5 258.8,61.8 259.1,71 			"/>
			<polygon class="st0" points="258.7,51.2 265,55.3 265.1,63.4 259,59.9 			"/>
			<polygon class="st0" points="265.3,52.3 259,48.6 258.8,39.3 265.3,43.2 			"/>
			<polygon class="st0" points="266.3,41.1 259.3,36.3 259.6,25.5 266.8,31.6 			"/>
			<polygon class="st0" points="273,86.9 267.7,84.2 267.6,77.5 273.5,81 			"/>
			<polygon class="st0" points="273.2,78.7 267.6,75.4 267.6,67.1 273.3,71.5 			"/>
			<polygon class="st0" points="273.9,59.5 267.9,55.3 268.5,46.1 274.7,51.2 			"/>
			<polygon class="st0" points="275.5,48.9 269.2,43.8 269.8,34.5 276.1,40.3 			"/>
			<polygon class="st0" points="276.9,37.9 270.6,31.9 271.9,21.2 278.2,27.9 			"/>
			<polygon class="st0" points="278.9,24.6 280.6,14.6 274.1,7.6 272.5,18.8 			"/>
			<polygon class="st0" points="285.3,14.6 287.5,3.7 293.8,12.7 291.3,22.1 			"/>
			<polygon class="st0" points="284.2,18.3 290,25.8 287.7,34.7 281.6,27.5 			"/>
			<polygon class="st0" points="281,31.1 287,37.9 285,46.3 278.9,39.5 			"/>
			<polygon class="st0" points="278.6,42 284.2,47.8 283.2,56.5 277.5,51.1 			"/>
			<polygon class="st0" points="277.2,53.8 282.9,58.9 281.9,66.7 276.4,62 			"/>
			<polygon class="st0" points="276,63.8 281.7,68.2 280.9,75.6 275.8,71.5 			"/>
			<polygon class="st0" points="275.6,72.9 280.9,77.1 280.7,83.4 275.8,80.7 			"/>
			<polygon class="st0" points="275.7,82.1 280.3,84.9 280.2,91 275.9,88.7 			"/>
			<polygon class="st0" points="287.6,81 283.3,76.7 283.9,69.9 288.3,74.4 			"/>
			<polygon class="st0" points="288.6,72.6 284,68.1 284.7,60.2 290,65.3 			"/>
			<polygon class="st0" points="290.4,63.2 285.4,58 287,51.1 292.5,56.3 			"/>
			<polygon class="st0" points="292.9,53.6 287.7,47.8 290.1,40.4 294.4,45.8 			"/>
			<polygon class="st0" points="295.1,43.9 290.3,37.9 293.4,28.9 298.1,35 			"/>
			<polygon class="st0" points="303.2,20.3 298,12.6 301.8,2.8 307.5,11.2 			"/>
			<polygon class="st0" points="311,11.8 315.8,2.4 320.1,11.7 316,19.7 			"/>
			<polygon class="st0" points="310.1,15.5 305.7,24.2 310.1,30.9 314.4,23 			"/>
			<polygon class="st0" points="304.8,27.3 308.9,34.1 305.5,42.3 301.2,35 			"/>
			<polygon class="st0" points="300.9,38.2 304.6,44.3 301.9,52 297.4,46.3 			"/>
			<polygon class="st0" points="294.2,58.7 298.2,63.8 296.5,69.9 292.4,65.4 			"/>
			<polygon class="st0" points="295.2,77.8 290.8,74.2 291.9,67.7 295.9,71.8 			"/>
			<polygon class="st0" points="290.3,76 294.6,79.8 293.1,85.7 289.1,81.8 			"/>
			<polygon class="st0" points="296.3,79.4 297.9,73.7 301.9,78.9 300.4,84.2 			"/>
			<polygon class="st0" points="302.3,76.2 298.4,71.3 300.4,65.5 304.2,70.5 			"/>
			<polygon class="st0" points="304.8,68.8 300.8,63.3 303.1,56.4 307.5,62.2 			"/>
			<polygon class="st0" points="308,60.5 303.8,54.1 307.2,47.3 311.1,53.2 			"/>
			<polygon class="st0" points="311.3,51.2 308.1,44 311.7,36.8 315.5,43.7 			"/>
			<polygon class="st0" points="316.1,41.4 313.1,34.8 316.7,27.2 320.1,34.8 			"/>
			<polygon class="st0" points="317.9,24.2 322.9,15.1 326.7,22.8 321.9,31.5 			"/>
			<polygon class="st0" points="323.7,12.7 330,2.7 333.8,12.2 328.1,20.7 			"/>
			<polygon class="st0" points="306.6,69.7 309.2,64.4 312.1,69.5 309.3,75.5 			"/>
			<polygon class="st0" points="313,68.1 310,62.5 312.7,56.1 316,61.5 			"/>
			<polygon class="st0" points="316.8,59.6 313.6,53.3 317,46.7 320.1,53 			"/>
			<polygon class="st0" points="321.4,51.2 318.3,44.8 322.2,37.6 325.3,44 			"/>
			<polygon class="st0" points="323.5,35.2 328.9,27.4 331.9,34.1 326.7,41.9 			"/>
			<polygon class="st0" points="330.1,24.9 335,17.1 338.3,25.4 333.4,32.7 			"/>
			<polygon class="st0" points="340.5,22.3 337,13.9 343.9,3.7 347.2,14.5 			"/>
			<polygon class="st0" points="313.8,81.7 311.3,77.3 313.8,72 316.7,76.9 			"/>
			<polygon class="st0" points="317.3,75.1 314.5,70.2 317.8,64.5 320.5,69.5 			"/>
			<polygon class="st0" points="318.4,62.6 322.3,56 324.8,61.2 321.5,67.9 			"/>
			<polygon class="st0" points="326,60.1 323.1,54.8 327.7,47.5 330.2,52.8 			"/>
			<polygon class="st0" points="331.3,51.4 336.4,44.5 333.4,38.5 328.6,45.8 			"/>
			<polygon class="st0" points="337.2,42.9 334.9,36.3 340.6,29.6 342.9,36.5 			"/>
			<polygon class="st0" points="344.4,33.3 342.5,26.6 348.1,18.6 350.5,27.6 			"/>
			<polygon class="st0" points="352.4,24.4 350.8,15.5 357.6,7.5 359.4,17.7 			"/>
			<polygon class="st0" points="321,81.6 318.4,76.3 321.6,71.3 323.8,76.9 			"/>
			<polygon class="st0" points="325,74.8 323,70 326.1,64.6 328.2,70.2 			"/>
			<polygon class="st0" points="334.3,60.9 332.6,55.4 337.2,48.7 339.1,55.3 			"/>
			<polygon class="st0" points="341,53.2 338.5,47 344.3,40.1 345.9,47.1 			"/>
			<polygon class="st0" points="345.7,38.5 347.7,45.3 353.7,38.2 351.9,31 			"/>
			<polygon class="st0" points="355.2,36.8 353.7,29 360.1,22.4 361.7,30.8 			"/>
			<polygon class="st0" points="364.1,27.9 362.8,19.5 370.3,12.4 371.5,21.8 			"/>
			<polygon class="st0" points="328.1,82.4 325.8,77.8 329.6,72.7 331.4,77.6 			"/>
			<polygon class="st0" points="332.4,75.9 330.2,71.3 334.4,65.7 336.1,71.3 			"/>
			<polygon class="st0" points="337.9,69.3 335.8,63.9 340.5,57.6 342.5,64.4 			"/>
			<polygon class="st0" points="343.5,63.2 341.4,57 347.2,50.4 349,57.1 			"/>
			<polygon class="st0" points="350,55.8 348.7,49.1 354.3,43 355.8,49.2 			"/>
			<polygon class="st0" points="366.2,40.4 364.6,32.8 372.6,25.6 373.4,35 			"/>
			<polygon class="st0" points="375.9,31.8 375.2,23.6 383.5,16.4 383.7,26.6 			"/>
			<polygon class="st0" points="335.1,83 333.3,78.2 337.6,73.6 339,79.2 			"/>
			<polygon class="st0" points="340.2,77.6 338.5,71.7 342.6,67.3 344.1,72.9 			"/>
			<polygon class="st0" points="345.7,71.2 344.2,65.7 349.8,60.4 350.4,66.8 			"/>
			<polygon class="st0" points="351.8,65 350.7,58.8 356.7,53.6 357.8,60.5 			"/>
			<polygon class="st0" points="359.5,58.5 358.5,52.4 364.9,46.6 365.7,53.5 			"/>
			<polygon class="st0" points="367.5,51.6 366.7,45 374,39.1 374.6,47.3 			"/>
			<polygon class="st0" points="376.6,45.1 376.5,36.8 384.6,30.7 385,40.6 			"/>
			<polygon class="st0" points="387.4,38.2 386.9,28.9 396,22.8 396,33.6 			"/>
			<polygon class="st0" points="341.7,84.8 340.9,79.5 345.1,75.1 345.9,80.9 			"/>
			<polygon class="st0" points="346.9,79.7 346,74.1 351.3,69.6 351.8,75.6 			"/>
			<polygon class="st0" points="353,74.2 352.7,68.4 358,63.3 358.8,70.3 			"/>
			<polygon class="st0" points="360.7,68.7 359.8,62.2 365.9,56.9 366.3,64 			"/>
			<polygon class="st0" points="368.1,62.6 367.5,55.6 374.8,50.5 374.8,58 			"/>
			<polygon class="st0" points="376.5,56.4 376.5,49.1 385.2,43.6 384.9,51.8 			"/>
			<polygon class="st0" points="387,50.5 387,42 395.8,36.8 395.9,46.5 			"/>
			<polygon class="st0" points="397.6,44.5 397.6,35.3 407.4,30.2 407.4,39.8 			"/>
			<polygon class="st0" points="347.5,81.7 348.1,87.3 353.5,83.3 352.7,78 			"/>
			<polygon class="st0" points="354.7,82.3 353.7,77.3 358.6,72.9 359.2,79.2 			"/>
			<polygon class="st0" points="361,77.8 360.4,71.8 366.5,67.3 366.9,74.3 			"/>
			<polygon class="st0" points="368.3,72.7 368.2,66.5 374.7,61.7 374.5,68.9 			"/>
			<polygon class="st0" points="376.5,67.7 376.4,60.4 384.3,55.9 384.1,63.4 			"/>
			<polygon class="st0" points="386.1,62.5 385.9,55.2 394.3,50.2 393.9,58.7 			"/>
			<polygon class="st0" points="396,57.1 396.3,49.3 406.2,44.4 405.7,53.6 			"/>
			<polygon class="st0" points="408.4,51.7 408.4,43 418.7,38.1 417.9,47.7 			"/>
			<polygon class="st0" points="354.2,84.8 355,90.2 360.1,86.7 359.8,81.4 			"/>
			<polygon class="st0" points="361.4,86 361,80.4 366.8,76.6 367.1,82.7 			"/>
			<polygon class="st0" points="375.5,77.9 376.4,70.8 383.6,66.8 383.3,73.9 			"/>
			<polygon class="st0" points="384.9,73.1 385.1,66.5 392.8,62.5 392.5,68.8 			"/>
			<polygon class="st0" points="394.8,68.9 394.9,61.5 403.7,57.3 403.3,64.9 			"/>
			<polygon class="st0" points="406,64.2 406.6,56 415.3,52.5 414.6,61 			"/>
			<polygon class="st0" points="417.5,59.8 418.1,52 429.6,47.8 426.1,57.4 			"/>
			<polygon class="st0" points="360.6,88.1 360.7,94 366.6,90.4 366.3,85.2 			"/>
			<polygon class="st0" points="367.6,89.7 367.4,84.1 373.4,80.9 373.1,87.1 			"/>
			<polygon class="st0" points="375.1,86.1 375.1,80.2 382.3,76.7 381.8,83.4 			"/>
			<polygon class="st0" points="383.5,82.1 383.8,76.4 391.5,73 391.2,80 			"/>
			<polygon class="st0" points="392.9,79.2 393.7,71.8 402.1,68.9 400.2,76.4 			"/>
			<polygon class="st0" points="402.4,75.2 404.5,68.2 412.5,65.2 411.2,72.5 			"/>
			<polygon class="st0" points="413.3,71.8 415.5,63.8 425.4,61.3 423.3,69 			"/>
			<polygon class="st0" points="425.7,68.7 428.8,60.3 438.2,58.2 435,67.4 			"/>
			<polygon class="st0" points="367.4,92.9 367.3,97.9 372.7,95 373.2,89.6 			"/>
			<polygon class="st0" points="374.1,94.6 374.7,88.9 380.9,86.1 380.2,92.2 			"/>
			<polygon class="st0" points="381.6,91.3 382.1,85.7 389.9,82.7 388.9,88.9 			"/>
			<polygon class="st0" points="390.3,88.5 391.5,82.2 399.1,79.2 397.4,86.2 			"/>
			<polygon class="st0" points="399.1,85.2 401,79 409.6,76.4 407.8,83.7 			"/>
			<polygon class="st0" points="409.8,82.8 411.9,75.9 421.1,73.9 418.4,81.1 			"/>
			<polygon class="st0" points="420.9,80.5 424.6,73 433.2,71.1 430.3,79 			"/>
			<polygon class="st0" points="433.2,78.3 436.8,70.3 447.5,69 443.6,77.5 			"/>
			<polygon class="st0" points="372.8,97.5 372.7,102.1 377.9,99.7 379.1,94.4 			"/>
			<polygon class="st0" points="381,93.8 379.6,99.4 386.6,97.1 387.9,92.1 			"/>
			<polygon class="st0" points="388.2,96.7 389.6,91.4 396,89.2 394.5,95.3 			"/>
			<polygon class="st0" points="396,95 398.2,88.6 405.8,87.1 403.7,93.3 			"/>
			<polygon class="st0" points="405.9,92.3 408.1,86.4 416.5,84.7 413.5,91.3 			"/>
			<polygon class="st0" points="416.3,91 419.4,83.9 428.2,83.2 425.1,89.9 			"/>
			<polygon class="st0" points="431.3,82.2 428.1,89.7 437.8,89.3 440.8,81.5 			"/>
			<polygon class="st0" points="440.9,88.5 445.8,81 455.1,80.1 450.5,88.2 			"/>
			<polygon class="st0" points="378.3,101.4 377.7,106.5 383.7,105.2 384.7,100.5 			"/>
			<polygon class="st0" points="384.8,104.7 385.8,100 392.8,98.2 391.1,103.2 			"/>
			<polygon class="st0" points="393,103.2 394.6,97.6 402.3,96 399.8,101.8 			"/>
			<polygon class="st0" points="401.4,101.6 404.3,95.9 412.5,94.4 409.6,100.3 			"/>
			<polygon class="st0" points="411.2,100.3 414.6,94.3 423.4,93.8 419.9,99.8 			"/>
			<polygon class="st0" points="422.3,99.5 425.9,93.2 435.1,92.9 431.4,99.8 			"/>
			<polygon class="st0" points="438.3,92.5 434,98.9 443.8,98.9 448,92.1 			"/>
			<polygon class="st0" points="446.7,99.4 452.3,92.4 462.2,92.3 456.8,99.7 			"/>
			<polygon class="st0" points="382.3,111.6 384,106.6 390.2,105.8 388.3,110.9 			"/>
			<polygon class="st0" points="389.8,110.3 392.5,105.3 398.1,104.9 396,110.1 			"/>
			<polygon class="st0" points="397.7,109.6 400.5,104.5 407.9,104 405.2,109.6 			"/>
			<polygon class="st0" points="406.9,109.5 409.9,103.7 418,103.3 414.6,109.2 			"/>
			<polygon class="st0" points="416.5,108.7 420.2,102.9 429.1,102.7 425.5,108.8 			"/>
			<polygon class="st0" points="427.5,108.7 431.5,102.9 440.9,102.7 437,109.1 			"/>
			<polygon class="st0" points="439.1,109.3 443.7,102.8 454.4,103.2 449.1,110.1 			"/>
			<polygon class="st0" points="451.8,110.2 457.6,103.7 468.5,103.8 461.9,111.6 			"/>
			<polygon class="st0" points="385.9,117.9 388.3,112.5 394.6,112.5 391.9,117.7 			"/>
			<polygon class="st0" points="393.7,117 396.1,112 403.6,111.9 400.4,117.1 			"/>
			<polygon class="st0" points="402.2,117.1 405.3,112.1 412.5,111.9 409.6,117.4 			"/>
			<polygon class="st0" points="411.2,117.2 414.9,111.3 423.8,111.6 419.2,117.2 			"/>
			<polygon class="st0" points="421.1,117.2 425.3,111.9 434.3,112.2 429.7,117.8 			"/>
			<polygon class="st0" points="431.9,118.1 436.1,112.7 446.8,112.9 441.4,119.1 			"/>
			<polygon class="st0" points="443.8,119.7 449.1,114.2 459.6,114.6 452.4,121.6 			"/>
			<polygon class="st0" points="456.3,122.2 463.1,115.6 472.8,117 466,124.5 			"/>
			<polygon class="st0" points="389.4,123.7 393,118.7 399.3,118.7 395.9,123.7 			"/>
			<polygon class="st0" points="397.6,123.7 400.8,118.9 407.9,119 404.2,123.9 			"/>
			<polygon class="st0" points="405.8,123.9 409.1,119.5 417.4,119.5 413.1,124.6 			"/>
			<polygon class="st0" points="414.9,125 419,120.3 427.6,120.6 423.4,125.7 			"/>
			<polygon class="st0" points="424.8,126.1 429.3,121.2 438.2,122.5 433.5,127.5 			"/>
			<polygon class="st0" points="435.5,128.3 441.2,123.3 450.2,125 444,130.3 			"/>
			<polygon class="st0" points="447.2,130.4 453,125.3 462.9,127.2 456,133 			"/>
			<polygon class="st0" points="459.7,134.1 466.8,128.6 476.3,130.9 469.2,137.5 			"/>
			<polygon class="st0" points="393.7,129.4 396.1,125.6 402.2,125.9 399.3,129.9 			"/>
			<polygon class="st0" points="400.4,130.5 404,126.3 411.1,126.7 406.9,131.2 			"/>
			<polygon class="st0" points="409,132 413.2,127.1 420.5,128 415.8,132.9 			"/>
			<polygon class="st0" points="418.1,133.5 422.2,128.8 430.3,129.9 426,135.3 			"/>
			<polygon class="st0" points="427.9,135.7 432.9,130.7 441.4,132.5 435.8,137.5 			"/>
			<polygon class="st0" points="438.2,138.1 444.1,133.1 452.8,136.3 446.5,141.4 			"/>
			<polygon class="st0" points="449.6,141.9 456.2,136.9 465.1,140.1 457.9,145.7 			"/>
			<polygon class="st0" points="461.7,146.3 469.3,141.5 479.1,144.5 471.1,149.9 			"/>
			<polygon class="st0" points="395.8,136.6 399.5,132.2 405.3,133.1 401.8,137.4 			"/>
			<polygon class="st0" points="403.6,137.6 407.1,133.5 414.3,134.8 409.2,138.9 			"/>
			<polygon class="st0" points="411.8,139.4 416.5,135.3 423.5,137.2 418.4,141.2 			"/>
			<polygon class="st0" points="420.2,141.8 425.3,137.6 433.1,139.9 427.6,144.4 			"/>
			<polygon class="st0" points="430,144.6 435.8,140.6 443.8,143.6 437.6,148 			"/>
			<polygon class="st0" points="440.1,148.6 446.7,144.6 455.1,147.9 447.9,152 			"/>
			<polygon class="st0" points="451,153 458.5,148.8 467.3,152.7 459.7,157.1 			"/>
			<polygon class="st0" points="463.2,159 471.8,154.2 481.1,159 471.8,163.4 			"/>
			<polygon class="st0" points="397.9,142.6 401.7,139 407.3,140.5 403.7,144 			"/>
			<polygon class="st0" points="405.1,144.8 409.4,141.1 415.6,143.1 411.4,147.4 			"/>
			<polygon class="st0" points="413.4,147.9 418.6,143.6 425.3,146.2 420.2,150.4 			"/>
			<polygon class="st0" points="421.7,150.7 427.5,146.7 434.6,149.9 429.1,154.1 			"/>
			<polygon class="st0" points="431.6,154.7 437.1,150.2 445.3,154.4 438.9,158.3 			"/>
			<polygon class="st0" points="441.3,159.2 448.4,155.4 456.1,159 448.9,163.2 			"/>
			<polygon class="st0" points="452.1,164.9 459.1,161.1 468,165.8 460.6,169.3 			"/>
			<polygon class="st0" points="463.4,171.1 471.5,167.8 480.8,172.6 472,176.8 			"/>
			<polygon class="st0" points="399.7,149.8 404.5,146.7 409,148.6 405.1,151.8 			"/>
			<polygon class="st0" points="406.5,152.4 411.3,148.9 417.4,151.4 411.8,155.1 			"/>
			<polygon class="st0" points="414.3,156.1 419.7,152.7 426.3,155.4 420.6,158.7 			"/>
			<polygon class="st0" points="422.5,159.8 428.8,156.5 435.4,159.8 429.7,163.3 			"/>
			<polygon class="st0" points="431.7,164.4 438.4,161 445.1,165 438.9,168.5 			"/>
			<polygon class="st0" points="441.5,169.8 448.1,166.3 455.7,171.2 449,174.6 			"/>
			<polygon class="st0" points="462.7,183.9 470.8,180.7 479.1,187.5 470.1,190 			"/>
			<polygon class="st0" points="400.8,156.6 405.3,154.3 410.4,156.7 405.9,159.2 			"/>
			<polygon class="st0" points="407.7,159.9 412.3,157.5 417.9,160.5 412.7,163 			"/>
			<polygon class="st0" points="415.3,164.3 420.4,161.2 427.4,164.9 420.7,167.7 			"/>
			<polygon class="st0" points="422.5,169.1 428.5,166 435.3,170.4 429.5,173.2 			"/>
			<polygon class="st0" points="431.6,174.4 437.6,171.3 445.2,176.7 438.4,179.2 			"/>
			<polygon class="st0" points="440.8,180.6 447,178 454.9,183.4 447.6,186 			"/>
			<polygon class="st0" points="450.7,187.8 458,185.3 465.6,192 457.9,194.3 			"/>
			<polygon class="st0" points="460.6,196 469.3,194.2 478.1,201 467.7,202.9 			"/>
			<polygon class="st0" points="400.7,163.7 406.2,162.1 410.4,164.6 405.6,166.5 			"/>
			<polygon class="st0" points="407.4,168 412.8,165.5 418.3,169.1 412.7,171.5 			"/>
			<polygon class="st0" points="414,172.6 420,170.1 426.6,174.3 420.2,176.7 			"/>
			<polygon class="st0" points="421.7,178 427.9,175.7 434.8,180.6 428,182.6 			"/>
			<polygon class="st0" points="429.7,183.9 436.2,181.8 443.7,187.3 436.8,189.2 			"/>
			<polygon class="st0" points="439.4,191.1 445.6,189.1 453.2,195.1 446.2,197.2 			"/>
			<polygon class="st0" points="447.3,198.8 455.4,197.2 463.6,204 454.3,206.1 			"/>
			<polygon class="st0" points="457.3,208.8 466.2,207.4 474.2,214.5 463.9,216.1 			"/>
			<polygon class="st0" points="400.6,171 405.8,169.5 410.4,172.9 405.4,174.3 			"/>
			<polygon class="st0" points="406.8,175.2 412.2,173.5 417.4,177.6 411.9,179.1 			"/>
			<polygon class="st0" points="413.4,181.1 419.8,178.8 424.9,183.6 418.7,185.1 			"/>
			<polygon class="st0" points="420.3,186.2 427,185 433.4,190.6 426.2,191.8 			"/>
			<polygon class="st0" points="427.6,193.4 435.6,192.3 441.5,198.4 433.6,199.3 			"/>
			<polygon class="st0" points="436.1,201.4 443.5,200.2 450.1,207.2 442.5,207.9 			"/>
			<polygon class="st0" points="444.4,210.3 453,209.6 459.4,216.9 450.5,217.5 			"/>
			<polygon class="st0" points="405.2,183 411.2,181.8 415.7,185.9 409.7,187.1 			"/>
			<polygon class="st0" points="412.1,188.7 417.7,187.9 423.4,192.6 416.3,193.8 			"/>
			<polygon class="st0" points="418.1,195 425.2,194.5 430.3,200 423.6,201.2 			"/>
			<polygon class="st0" points="425,202.4 432.4,202 437.8,208.6 430,209.1 			"/>
			<polygon class="st0" points="432.5,211.1 440.9,211 446.1,218.2 437.6,218.4 			"/>
			<polygon class="st0" points="439.5,220.5 448.2,220.5 454.3,228.7 445,228.7 			"/>
			<polygon class="st0" points="448,231.9 457.6,231.9 463.6,241.2 453.6,241.2 			"/>
			<polygon class="st0" points="442.3,243.4 451,243.4 456.6,254.1 446.5,252.4 			"/>
			<polygon class="st0" points="434.2,231.8 443.7,231.8 448.6,240.3 440.5,240.3 			"/>
			<polygon class="st0" points="432.9,229 427.8,220.6 436.2,220.6 441.8,228.9 			"/>
			<polygon class="st0" points="398.1,184.2 403.6,184.2 407.3,188 401.9,188 			"/>
			<polygon class="st0" points="403.8,190.3 409.6,190.3 413.5,194.3 407.2,194.9 			"/>
			<polygon class="st0" points="409.6,197 415.2,196.4 420.3,201.5 413.2,202.1 			"/>
			<polygon class="st0" points="415.2,204.1 421.6,203.7 426.8,210.1 419.8,210.3 			"/>
			<polygon class="st0" points="400.5,197.4 407.3,197.4 410.8,202.8 404.4,202.8 			"/>
			<polygon class="st0" points="406.2,204.5 412.5,204.5 416.4,209.8 410.1,209.8 			"/>
			<polygon class="st0" points="411,211.7 418,211.7 422.9,218.9 416,218.9 			"/>
			<polygon class="st0" points="417.4,221 425,221 428.9,228.7 422.2,228.7 			"/>
			<polygon class="st0" points="423,230.8 430.4,230.8 435.5,239.8 427.9,239.8 			"/>
			<polygon class="st0" points="428.5,241.5 436.4,241.5 441.6,251.8 433.4,251.8 			"/>
			<polygon class="st0" points="393.2,198.1 398.4,198.1 402,203.1 396.1,203.1 			"/>
			<polygon class="st0" points="397.5,204.5 403.3,204.5 407.6,210 400.8,210 			"/>
			<polygon class="st0" points="401.7,212.1 408.3,212.1 412.8,219.2 406.5,219.2 			"/>
			<polygon class="st0" points="407.1,220.2 413.9,220.2 418,228.4 411.3,228.4 			"/>
			<polygon class="st0" points="412,229.4 418.4,229.4 423,237.8 416,237.8 			"/>
			<polygon class="st0" points="416.6,239.9 424.8,239.9 428.6,249.2 421,249.2 			"/>
			<polygon class="st0" points="421.7,251.5 430,251.5 433.8,262.2 425.9,262.2 			"/>
			<polygon class="st0" points="426.8,264.3 436,265.8 439.2,276.6 430.3,273.5 			"/>
			<polygon class="st0" points="393.8,211.1 399.2,211.5 402.4,217.5 396.7,217.5 			"/>
			<polygon class="st0" points="397.4,218.9 403.7,219.2 407.1,226.5 400.6,226.1 			"/>
			<polygon class="st0" points="401.5,227.7 407.8,228.3 411.5,236.7 405.2,235.6 			"/>
			<polygon class="st0" points="410,248.5 417,248.9 420.9,259.6 412.5,257 			"/>
			<polygon class="st0" points="413.6,259.4 421.9,262.7 424.7,272.2 416.4,269.2 			"/>
			<polygon class="st0" points="386.2,210.1 391.5,211 393.6,216.4 388.7,216 			"/>
			<polygon class="st0" points="389.6,218.1 395.4,218.7 397.4,225.1 391.8,223.7 			"/>
			<polygon class="st0" points="392.6,225.9 399.1,226.9 401.2,234 395.4,232.6 			"/>
			<polygon class="st0" points="396.3,234.5 402.7,235.9 405.1,243.8 398.4,242.6 			"/>
			<polygon class="st0" points="399.4,244.8 406.6,246.4 408.6,255.6 401.6,253.6 			"/>
			<polygon class="st0" points="405.1,267.8 413.6,270.7 415.3,281.2 406.8,277 			"/>
			<polygon class="st0" points="408.3,281.9 416.7,286.2 418.7,296.7 409.3,291.3 			"/>
			<polygon class="st0" points="376.8,221.5 382.1,223.3 383.3,228.7 378.9,227.5 			"/>
			<polygon class="st0" points="383.8,224 390.3,225 392.4,232.4 386.3,229.6 			"/>
			<polygon class="st0" points="379.5,229.4 383.8,230.7 386.3,238.1 381,235.9 			"/>
			<polygon class="st0" points="381.3,238 387.2,240.1 388.2,247.8 382.3,244.8 			"/>
			<polygon class="st0" points="384.2,257.7 391.1,261.3 391.2,269.9 384.7,266.6 			"/>
			<polygon class="st0" points="389.6,241.3 396.8,244 398.4,251.8 391.2,248.6 			"/>
			<polygon class="st0" points="391.5,251.1 399.5,254.9 400.3,262.9 393.9,260.1 			"/>
			<polygon class="st0" points="394.5,262.6 401.7,265.8 402.7,276.2 394.9,271.7 			"/>
			<polygon class="st0" points="373.8,235 378.2,236.8 379.4,243.4 373.6,240.6 			"/>
			<polygon class="st0" points="374.3,243 379.8,246.1 380.3,253.1 374.6,249.7 			"/>
			<polygon class="st0" points="375.2,252.4 380.7,256.2 380.9,264.3 375.4,260.5 			"/>
			<polygon class="st0" points="375.7,274.5 382.1,279.2 382.1,288.8 375.9,284 			"/>
			<polygon class="st0" points="385.6,269.7 392.1,272.9 392.1,281.6 385.9,278.7 			"/>
			<polygon class="st0" points="386.8,295.5 394,301.3 394,312.3 386.6,306.4 			"/>
			<polygon class="st0" points="366.1,279.4 371.4,283.4 371.4,294.2 365.6,289.3 			"/>
			<polygon class="st0" points="362.3,285.8 356.4,280.6 357.1,271.3 362.4,276 			"/>
			<polygon class="st0" points="359.9,234.3 359.9,241.5 364,243.6 364,237.3 			"/>
			<polygon class="st0" points="366.8,238.9 366.8,244.7 371.5,248.3 371.5,241.6 			"/>
			<polygon class="st0" points="359.8,242.9 364.2,245.9 364.2,253.6 359.5,249.6 			"/>
			<polygon class="st0" points="359.1,251.3 364.1,255 364.1,262.7 358.9,258.7 			"/>
			<polygon class="st0" points="366.6,257.4 372.5,261.3 372.5,269.2 366.5,265.5 			"/>
			<polygon class="st0" points="352.1,245.5 357,249 357,256.3 351.8,252.2 			"/>
			<polygon class="st0" points="337.1,250.4 341.3,254.8 340.6,262.2 335.8,256.9 			"/>
			<polygon class="st0" points="343.1,257.4 342,264.8 345.6,269.4 346.9,261.5 			"/>
			<polygon class="st0" points="353,295.6 358.9,302.3 356.8,312.1 351.1,305.1 			"/>
			<polygon class="st0" points="335.4,284.3 338.1,277 342.1,282.5 339.8,291.8 			"/>
			<polygon class="st0" points="332.5,281.5 335.6,273.5 331.8,267.3 329,275.6 			"/>
			<polygon class="st0" points="326.9,272.9 323.5,266.4 326.7,260.1 330.2,265.2 			"/>
			<polygon class="st0" points="312.9,265.4 309,272.2 311.2,278.3 315.4,271.4 			"/>
			<polygon class="st0" points="312.8,282.5 317.6,274.6 320.9,280.5 316,288.3 			"/>
			<polygon class="st0" points="316.9,294.3 321,301.8 316.2,310.3 312.3,302.6 			"/>
			<polygon class="st0" points="297.9,304.7 301.6,313.4 295,321.4 291.9,313.1 			"/>
			<polygon class="st0" points="294.7,285.8 292.3,279.7 298.2,272.9 299.7,279.9 			"/>
			<polygon class="st0" points="271.9,287.2 271.9,296.3 264.5,302.3 264.5,292.5 			"/>
			<polygon class="st0" points="250.1,290.7 250.1,300.5 241,306.2 241,295.6 			"/>
		</g>
		<g>
			<path class="st1" d="M390.8,161.1c-0.1-13.8-9.4-23.5-22.8-23.5c0,0-0.1,0-0.2,0c-2.5,0-4.8,0.4-7,1.1c-2-1-4.2-1.3-6.4-0.8
				l-7.7,1.6c0,0-0.1,0-0.1,0c-3.7,0.8-6.6,2.9-8.4,5.8c-5.2-4.6-12.2-7.4-20-7.4c0,0-0.2,0-0.2,0c-8.9,0.1-16.8,3.8-22.2,9.7
				c-4-5.9-10.6-9.4-18.7-9.4c0,0-0.1,0-0.2,0c-0.6,0-1.3,0-1.9,0.1l0-4.9c0-2.9-1.4-5.7-3.7-7.5c-2.3-1.8-5.3-2.5-8.2-1.8l-7.8,1.8
				c-0.1,0-0.1,0-0.2,0c-4.7,1.2-8.2,4.5-9.5,8.8c-0.5-2.4-1.8-4.5-3.7-6c-2.5-1.8-5.6-2.4-8.6-1.5l-7.6,2.3
				c-5.6,1.6-9.2,6.1-9.5,11.5c-0.8,0.5-1.5,1.1-2.2,1.8c-4.2-2.7-9.7-4.1-16.1-4.1l-0.3,0c-5.6,0-10.8,1-15.9,3
				c-0.4,0.1-0.7,0.3-1,0.5c-1.7-1.4-3.9-2.3-6.2-2.3c0,0,0,0-0.1,0l-0.6,0l0-3.1c0-3.1-1.5-5.9-3.9-7.7c-2.5-1.8-5.6-2.4-8.6-1.5
				l-7.6,2.3c-5.6,1.6-9.2,6.1-9.5,11.5c-0.8,0.5-1.5,1.1-2.2,1.8c-4.2-2.7-9.7-4.1-16.1-4.1l-0.3,0c-5.6,0-10.8,1-15.9,3
				c-1,0.4-1.9,0.9-2.7,1.4c-6.1-9.8-17.3-15.8-31.3-15.8l-18.2,0.1c-2.6,0-5,1-6.8,2.9c-1.8,1.8-2.8,4.3-2.8,6.9l0.3,49
				c0,5.3,4.4,9.6,9.7,9.6c0,0,0,0,0.1,0l17.7-0.1c10.2-0.1,19-3.3,25.6-9.3c3.8,6.1,10.8,9.9,19.4,9.9c0,0,0.1,0,0.2,0
				c3,0,5.9-0.5,8.5-1.4c1,0.3,2.1,0.5,3.1,0.5l10.3-0.1c2.6,0,5-1,6.8-2.9c0.4-0.4,0.8-0.9,1.2-1.5c3.6,3.3,8.6,5,14.7,5l0.2,0
				c3.4,0,6.3-0.5,9-1.5c1.8-0.6,3.3-1.5,4.5-2.4c3.7,2.4,8.2,3.8,13.3,3.8c0,0,0.1,0,0.2,0c3,0,5.9-0.5,8.5-1.4
				c1,0.3,2.1,0.5,3.1,0.5l10.3-0.1c2.6,0,5-1,6.8-2.9c0.4-0.5,0.8-0.9,1.2-1.5c3.6,3.3,8.6,5,14.7,5l0.2,0c3.4,0,6.3-0.5,9-1.5
				c1-0.3,1.9-0.8,2.7-1.2c1.6,1.1,3.6,1.8,5.6,1.8c0,0,0,0,0.1,0l10.4-0.1c2.8,0,5.3-1.2,7.1-3.1c1.8,1.9,4.3,3,7,3c0,0,0,0,0.1,0
				l10.5-0.1c2.6,0,5-1,6.8-2.9c0.8-0.8,1.5-1.8,1.9-2.9c5.1,4,11.6,6.4,18.8,6.4h0.2c7.2,0,13.8-2.4,19.1-6.7
				c0.5,1.1,1.2,2.1,2,2.9c1.8,1.8,4.3,2.8,6.8,2.8c0,0,0,0,0.1,0l10.4-0.1c2.8,0,5.3-1.2,7.1-3.1c1.8,1.9,4.3,3,7,3c0,0,0,0,0.1,0
				l10.5-0.1c2.6,0,5-1,6.8-2.9c1.8-1.8,2.8-4.3,2.8-6.9L390.8,161.1z M318.3,166.7c0,0.2,0,0.4-0.1,0.5c-0.1-0.1-0.1-0.3-0.1-0.6
				c0-0.2,0-0.4,0.1-0.5C318.2,166.3,318.3,166.4,318.3,166.7z M318,157.2v8.8c0,0,0,0,0,0L318,157.2z M198,174.3
				C198,174.3,198,174.3,198,174.3l0-1.5c0,0,0,0,0,0V174.3z M126.1,174.7C126.1,174.7,126.1,174.7,126.1,174.7l0-1.5c0,0,0,0,0,0
				V174.7z M82.2,161.8c0,1.9-0.4,4.4-3.7,5.2l-0.1-10.5C81,157,82.2,158.8,82.2,161.8z"/>
			<g>
				<path class="st0" d="M76.2,136.2L57,136.3l0.3,51.2l18.8-0.1c8.3,0,15.3-2.6,20.3-7.4c4.8-4.6,7.4-11.2,7.4-18.5
					C103.7,146.3,92.6,136.2,76.2,136.2z M76.3,146.6v1.1c8.7,0,14.4,5.5,14.5,14.1c0,4.1-1.3,7.6-3.9,10.1
					c-2.6,2.5-6.2,3.9-10.6,3.9l-6.4,0l-0.2-28.1l6.4,0L76.3,146.6L76.3,146.6z"/>
				<path class="st0" d="M126.3,147.6h-0.2c-4.6,0-8.7,0.8-12.8,2.4c-2,0.8-2.6,1.5-2.5,3.6l0,7.7l1.5-0.6c5-1.9,8.4-2.7,12.4-2.7
					c4.4,0,6.7,1.8,6.9,5.4c-2.4-0.7-5.4-1.2-8.1-1.2h0c-10.3,0.1-16.4,5-16.4,13.3c0,7.4,5.6,12.4,13.9,12.4h0.1
					c4.2,0,7.7-1.3,10.5-3.7l0,2.8l12.5-0.1l-0.1-22.7C144.1,153.3,137.9,147.6,126.3,147.6z M126,170.2l0.1-1.1h0L126,170.2
					c1.9,0,4.2,0.3,5.9,0.8l0,1.7c0,3.7-2.9,6.2-7.3,6.2c-2.4,0-5.1-1.1-5.1-4.1C119.5,171.9,121.9,170.2,126,170.2z M121.2,186.8
					L121.2,186.8L121.2,186.8L121.2,186.8z"/>
				<path class="st0" d="M174.9,155.6l1.2-7.2l-10.5,0.1l-0.1-13.1l-9,2.7c-2.2,0.6-3.4,2.1-3.4,4l0,6.4l-4.7,0l0.1,10.4l4.7,0
					l0.1,15.2c0.1,9.2,4.1,13.5,12.7,13.5h0.2c2.4,0,4.4-0.3,6.2-1c2.4-0.8,2.8-1.4,2.8-3.8l0-7.4l-1.4,0.5
					c-1.7,0.6-3.2,0.9-4.5,0.9c-2.3,0-3.3-1-3.3-3.3l-0.1-14.6l5.2,0C172.6,158.8,174.4,158.4,174.9,155.6z"/>
				<path class="st0" d="M198.2,147.2H198c-4.6,0-8.7,0.8-12.8,2.4c-2,0.8-2.6,1.5-2.5,3.6l0,7.7l1.5-0.6c5-1.9,8.4-2.7,12.4-2.7
					c4.4,0,6.7,1.8,6.9,5.4c-2.4-0.7-5.4-1.2-8.1-1.2h0c-4.9,0-8.9,1.2-11.8,3.3c-3.1,2.3-4.7,5.8-4.6,10c0,7.4,5.6,12.4,13.9,12.4
					h0.1c4.2,0,7.7-1.3,10.5-3.7l0,2.8l12.5-0.1l-0.1-22.7C216,152.9,209.8,147.2,198.2,147.2z M197.9,169.8l0.1-1.1h0L197.9,169.8
					c1.9,0,4.2,0.3,5.9,0.8l0,1.7c0,3.7-2.9,6.2-7.3,6.2c-2.4,0-5.1-1.1-5.1-4.1C191.4,171.5,193.8,169.8,197.9,169.8z M193,186.4
					L193,186.4L193,186.4L193,186.4z"/>
				<path class="st0" d="M246.8,155.2l1.2-7.2l-10.5,0.1l-0.1-13.1l-9,2.7c-2.2,0.6-3.4,2.1-3.4,4l0,6.4l-4.7,0l0.1,10.4l4.7,0
					l0.1,15.2c0.1,9.2,4.1,13.5,12.7,13.5h0.2c2.4,0,4.4-0.3,6.2-1c2.4-0.8,2.8-1.4,2.8-3.8l0-7.4l-1.4,0.5
					c-1.7,0.6-3.2,0.9-4.5,0.9c-2.3,0-3.3-1-3.3-3.3l-0.1-14.6l5.2,0C244.5,158.4,246.3,158,246.8,155.2z"/>
				<path class="st0" d="M277.1,146.7c-4.9,0-8.3,2-10.5,4.3l-0.1-19l-9.1,2.1c-2.2,0.5-3.4,2-3.4,4l0.3,48.1l12.5-0.1l-0.1-20.3
					c0-4.4,2.7-7.7,6.3-7.8c5.1,0,5.7,4.8,5.7,6.9l0.1,21.2l12.7-0.1l-0.1-24.4C291.3,152.4,285.9,146.7,277.1,146.7z"/>
				<path class="st0" d="M318.1,146.5c-11.8,0.1-21,9-20.9,20.3c0.1,11.4,9,19.9,20.9,19.9h0.1c5.8,0,11.2-2.2,15.1-6
					c3.9-3.8,6-8.8,5.9-14.2C339.1,155.1,330.1,146.5,318.1,146.5z M311.8,160.2c1.6-1.8,3.7-2.7,6.2-2.7l0.1-1.1l0,0v1.1
					c4.9,0,8.8,4,8.8,9.2c0,2.5-0.8,4.8-2.4,6.5c-1.6,1.7-3.8,2.6-6.3,2.7c-4.9,0-8.7-3.9-8.7-9.1
					C309.5,164.2,310.3,161.9,311.8,160.2z M318,185.7L318,185.7L318,185.7L318,185.7z"/>
				<path class="st0" d="M382.2,161.1c-0.1-9.2-5.5-14.9-14.3-14.9c-4.2,0-7.7,1.5-10.4,4.3l0-4.6l-9,1.9c-2.2,0.5-3.6,2-3.6,4
					l0.2,33.9l12.5-0.1l-0.1-20.3c0-2.2,0.6-4.2,1.8-5.6c1.1-1.4,2.7-2.2,4.5-2.2c5.1,0,5.7,4.8,5.7,6.9l0.1,21.2l12.7-0.1
					L382.2,161.1z"/>
			</g>
		</g>
		<g>
			<g>
				<g>
					<g>
						<g>
							<g>
								<polygon class="st0" points="9.2,42.6 9.2,77 34.7,91.7 7.8,107.2 37.6,124.4 65.9,108.1 65.9,75.4 								"/>
							</g>
						</g>
					</g>
				</g>
				<g>
					<g>
						<polygon class="st2" points="10.7,107.3 37.6,122.8 37.6,91.7 						"/>
						<polygon class="st3" points="10.7,45.2 10.7,76.2 37.6,60.7 						"/>
						<polygon class="st4" points="37.6,60.7 37.6,60.7 10.7,76.2 37.6,91.7 						"/>
						<linearGradient id="SVGID_1_" gradientUnits="userSpaceOnUse" x1="37.5871" y1="91.7321" x2="64.4796" y2="91.7321">
							<stop  offset="0" style="stop-color:#231E67"/>
							<stop  offset="8.938972e-02" style="stop-color:#3F1E6B"/>
							<stop  offset="0.2" style="stop-color:#5E1F70"/>
							<stop  offset="1" style="stop-color:#B63F80"/>
						</linearGradient>
						<polygon class="st5" points="64.5,107.3 64.5,76.2 37.6,91.7 						"/>
						<linearGradient id="SVGID_2_" gradientUnits="userSpaceOnUse" x1="51.0319" y1="60.6786" x2="51.0319" y2="91.7307">
							<stop  offset="0.1" style="stop-color:#EF4E23"/>
							<stop  offset="0.122" style="stop-color:#EF5023"/>
							<stop  offset="0.7081" style="stop-color:#F4801F"/>
							<stop  offset="1" style="stop-color:#F6921E"/>
						</linearGradient>
						<polygon class="st6" points="37.6,91.7 37.6,91.7 64.5,76.2 37.6,60.7 						"/>
						<linearGradient id="SVGID_3_" gradientUnits="userSpaceOnUse" x1="37.5871" y1="107.2554" x2="64.4796" y2="107.2554">
							<stop  offset="5.000000e-02" style="stop-color:#AE2A47"/>
							<stop  offset="0.1784" style="stop-color:#BB254B"/>
							<stop  offset="0.4985" style="stop-color:#D61C53"/>
							<stop  offset="0.7827" style="stop-color:#E61658"/>
							<stop  offset="1" style="stop-color:#EC145A"/>
						</linearGradient>
						<polygon class="st7" points="64.5,107.3 64.5,107.3 37.6,91.7 37.6,122.8 						"/>
					</g>
				</g>
			</g>
			<g>
				<path class="st0" d="M92.5,105.9c-1.3,0-2.4,0.9-3.6,2.8c-1,1.7-1.5,3.2-1.5,4.5c0,1.3,0.4,2.5,1.3,3.3c0.8,0.9,1.9,1.3,3.3,1.3
					c1.3,0,2.4-0.8,3.3-2.6c0.8-1.5,1.2-2.9,1.2-4.2c0-1.3-0.4-2.4-1-3.4C94.7,106.5,93.7,105.9,92.5,105.9 M175.2,67.6L175.2,67.6
					h-37.5h-1.5h-4.7c-1.7-0.8-4.3-3-4.3-5.6c0-4.3,4.8-6.9,8.1-8.6c4.3-2.2,8.9-3.6,13.7-4.3c0.9-0.1,1.8-0.2,2.7-0.2
					c0.8,0,1.7,0,2.5,0.1c1.5,0.1,3.1,0.5,3.9,2c0.8,1.4,0.4,3.5-0.8,4.5c-0.1,0.1-0.2,0.2-0.3,0.3c-0.5,0.5-0.6,1.3,0.1,1.9
					l3.9,3.1c0.9,0.8,1.7,0.1,2.1-0.2c1.6-1.1,2.6-3.7,2.7-4.8c0.3-3.5-1.3-7.6-4.8-9.7c-5.6-3.3-14.4-2.2-20.3-0.9
					c-7.2,1.5-21.9,6.1-21.9,15.6c0,2.4,1.1,4.5,3.3,6.3l0.3,0.3h-5.4h-0.9h-32h-2.9c-0.5,0-1.3,0.3-1.9,0.9
					c-1.4,1.4-2.2,3.9-2.4,4.5h21.8h7.1v2.2c-8.3,1.4-15.8,4.9-22.3,10.2c-2.5,2-3.7,3.6-3.7,4.9c0,1.6,2.6,4.2,7.8,7.9
					c3.5,2.5,6.8,4.6,9.9,6.3c6.7,3.7,11.8,5.7,15.2,5.9V73h1.5h0.7h9.9v32.1c0,0.7,0.4,1.5,1.1,2.3c1.7,1.8,4.8,2.7,5.5,2.9V73h2.7
					h1.5H164v2.2c-8.3,1.4-15.7,4.9-22.4,10.2c-2.5,2.1-3.8,3.7-3.8,4.9c0,0.6,0.6,1.6,1.9,3c3.2,3.2,7.1,6.2,11.8,9
					c8.7,5.2,15.1,7.9,19.2,8.1V73h0h0.1c0.6,0,1.3-0.3,1.9-0.9C174.3,70.7,175,68.2,175.2,67.6 M105.2,101.6
					c-3.1-1.3-6.7-3.8-10.9-7.3c-1.6-1.4-2.6-2.3-3-2.9c1.7-3,6.4-5.4,14-7.1V101.6z M162.4,101.6c-3.1-1.3-6.7-3.8-10.9-7.3
					c-1.6-1.4-2.6-2.3-3-2.9c0.3-0.3,0.5-0.6,0.7-0.8c3.1-3,7.5-5.1,13.2-6.4V101.6z"/>
			</g>
		</g>
	</g>
</g>
</svg>
