<?xml version="1.0" encoding="utf-8"?>
<!-- Generator: Adobe Illustrator 23.0.1, SVG Export Plug-In . SVG Version: 6.00 Build 0)  -->
<svg version="1.1" id="Panel_Info" xmlns="http://www.w3.org/2000/svg" xmlns:xlink="http://www.w3.org/1999/xlink" x="0px" y="0px"
	 viewBox="0 0 50 46.6" style="enable-background:new 0 0 50 46.6;" xml:space="preserve">
<style type="text/css">
	.st0{fill:#00AC4D;}
</style>
<title>dataunchained-shape-left</title>
<path class="st0" d="M42.6,11.1h-37c-3-0.3-5.2-3-4.9-6.1C0.9,2.4,3,0.3,5.6,0.1h37c3.1,0.1,5.4,2.7,5.3,5.8
	C47.7,8.7,45.4,11,42.6,11.1L42.6,11.1z"/>
<path class="st0" d="M44.5,46.6c-3,0-5.5-2.5-5.5-5.5V5.5c0.3-3,3-5.2,6.1-4.9c2.6,0.3,4.7,2.3,4.9,4.9v35.6
	C50,44.2,47.5,46.6,44.5,46.6C44.5,46.6,44.5,46.6,44.5,46.6z"/>
</svg>
